<?xml version="1.0" encoding="utf-8" ?>
<svg xmlns="http://www.w3.org/2000/svg" xmlns:xlink="http://www.w3.org/1999/xlink" width="500" height="500" viewBox="0 0 500 500">
	<path d="M0 0L500 0L500 500L0 500L0 0Z" fill-rule="nonzero" transform="matrix(1 0 0 1 0 0)" fill="rgb(64, 52, 52)"/>
	<defs>
		<clipPath id="clipPath7995769548">
			<path d="M0 0L500 0L500 500L0 500L0 0Z" fill-rule="nonzero" transform="matrix(1 0 0 1 0 0)"/>
		</clipPath>
	</defs>
	<g clip-path="url(#clipPath7995769548)">
		<path d="M0 0L500 0L500 0.25L0 0.25L0 0Z" fill-rule="nonzero" transform="matrix(1 0 0 1 0 382.4)" fill="rgb(235, 235, 235)"/>
		<path d="M0 0L33.12 0L33.12 0.25L0 0.25L0 0Z" fill-rule="nonzero" transform="matrix(1 0 0 1 52.46 391.92)" fill="rgb(235, 235, 235)"/>
		<path d="M0 0L53.86 0L53.86 0.25L0 0.25L0 0Z" fill-rule="nonzero" transform="matrix(1 0 0 1 171.14 392.05)" fill="rgb(235, 235, 235)"/>
		<path d="M0 0L19.19 0L19.19 0.25L0 0.25L0 0Z" fill-rule="nonzero" transform="matrix(1 0 0 1 105.77 397.08)" fill="rgb(235, 235, 235)"/>
		<path d="M0 0L19.23 0L19.23 0.25L0 0.25L0 0Z" fill-rule="nonzero" transform="matrix(1 0 0 1 426.77 396.96)" fill="rgb(235, 235, 235)"/>
		<path d="M0 0L30.29 0L30.29 0.25L0 0.25L0 0Z" fill-rule="nonzero" transform="matrix(1 0 0 1 387.57 396.96)" fill="rgb(235, 235, 235)"/>
		<path d="M0 0L42.56 0L42.56 0.25L0 0.25L0 0Z" fill-rule="nonzero" transform="matrix(1 0 0 1 328.33 395.31)" fill="rgb(235, 235, 235)"/>
		<path d="M198.79 282.8L5.7 282.8C4.12518 282.797 2.78148 282.239 1.66888 281.124C0.556295 280.01 0 278.665 0 277.09L0 5.66C0.0137024 4.09494 0.57585 2.76102 1.68644 1.65822C2.79704 0.55542 4.13489 0.00268046 5.7 0L198.79 0C200.367 0 201.713 0.557472 202.828 1.67242C203.943 2.78736 204.5 4.13322 204.5 5.71L204.5 277.09C204.5 278.667 203.943 280.013 202.828 281.128C201.713 282.243 200.367 282.8 198.79 282.8ZM5.7 0.200001C4.19422 0.202755 2.90944 0.736996 1.84566 1.80272C0.781888 2.86845 0.25 4.15421 0.25 5.66L0.25 277.09C0.250008 278.596 0.781898 279.882 1.84567 280.947C2.90945 282.013 4.19422 282.547 5.7 282.55L198.79 282.55C200.297 282.547 201.583 282.013 202.648 280.948C203.713 279.883 204.247 278.597 204.25 277.09L204.25 5.66C204.247 4.15341 203.713 2.86745 202.648 1.80212C201.583 0.736799 200.297 0.202758 198.79 0.200001L5.7 0.200001Z" fill-rule="nonzero" transform="matrix(1 0 0 1 38.21 55)" fill="rgb(235, 235, 235)"/>
		<path d="M198.81 282.8L5.71001 282.8C4.13438 282.797 2.78949 282.239 1.67534 281.125C0.561203 280.01 0.00275675 278.666 0 277.09L0 5.66C0.0164185 4.09414 0.580704 2.76 1.69286 1.65759C2.80502 0.555181 4.14407 0.00264994 5.71001 0L198.81 0C200.373 0.00541433 201.709 0.559324 202.817 1.66173C203.925 2.76413 204.486 4.09689 204.5 5.66L204.5 277.09C204.5 278.663 203.945 280.006 202.835 281.12C201.724 282.235 200.383 282.794 198.81 282.8ZM5.71001 0.200001C4.20341 0.202755 2.91746 0.736796 1.85213 1.80212C0.786799 2.86745 0.252757 4.15341 0.25 5.66L0.25 277.09C0.252757 278.597 0.786799 279.883 1.85213 280.948C2.91746 282.013 4.20341 282.547 5.71001 282.55L198.81 282.55C200.317 282.547 201.603 282.013 202.668 280.948C203.733 279.883 204.267 278.597 204.27 277.09L204.27 5.66C204.267 4.15341 203.733 2.86745 202.668 1.80213C201.603 0.736804 200.317 0.20276 198.81 0.200001L5.71001 0.200001Z" fill-rule="nonzero" transform="matrix(1 0 0 1 254.5 55)" fill="rgb(235, 235, 235)"/>
		<path d="M0 0L28.32 0L28.32 140.9L0 140.9L0 0Z" fill-rule="nonzero" transform="matrix(-1 0 0 -1 330.54 382.4)" fill="rgb(230, 230, 230)"/>
		<path d="M5.38 15.3L0 15.3L0 0L11.02 0L5.38 15.3Z" fill-rule="nonzero" transform="matrix(1 0 0 1 302.21 367.1)" fill="rgb(240, 240, 240)"/>
		<path d="M0 0L28.32 0L28.32 140.9L0 140.9L0 0Z" fill-rule="nonzero" transform="matrix(-1 0 0 -1 436.38 382.4)" fill="rgb(230, 230, 230)"/>
		<path d="M0 0L110.54 0L110.54 131.51L0 131.51L0 0Z" fill-rule="nonzero" transform="matrix(-1 0 0 -1 412.76 373.01)" fill="rgb(240, 240, 240)"/>
		<path d="M0 0L25.57 0L25.57 49.29L0 49.29L0 0Z" fill-rule="nonzero" transform="matrix(0 -1 1 0 306.39 353.88)" fill="rgb(230, 230, 230)"/>
		<path d="M0 0L25.57 0L25.57 49.29L0 49.29L0 0Z" fill-rule="nonzero" transform="matrix(0 -1 1 0 359.29 353.88)" fill="rgb(230, 230, 230)"/>
		<path d="M11.2 4.82L20.95 4.82C23.0687 4.82133 25.1012 4.40322 27.0474 3.56567C28.9935 2.72813 30.6944 1.53957 32.15 0L0 0C1.45561 1.53957 3.15649 2.72814 5.10266 3.5657C7.04883 4.40325 9.08128 4.82135 11.2 4.82Z" fill-rule="nonzero" transform="matrix(1 0 0 1 367.86 327.77)" fill="rgb(240, 240, 240)"/>
		<path d="M11.2 4.82L20.95 4.82C23.0688 4.82135 25.1012 4.40325 27.0474 3.5657C28.9936 2.72814 30.6944 1.53957 32.15 0L0 0C1.45559 1.53957 3.15646 2.72814 5.10263 3.5657C7.0488 4.40325 9.08126 4.82135 11.2 4.82Z" fill-rule="nonzero" transform="matrix(1 0 0 1 314.46 327.77)" fill="rgb(240, 240, 240)"/>
		<path d="M0 0L25.57 0L25.57 49.29L0 49.29L0 0Z" fill-rule="nonzero" transform="matrix(0 -1 1 0 306.38 314.13)" fill="rgb(230, 230, 230)"/>
		<path d="M0 0L25.57 0L25.57 49.29L0 49.29L0 0Z" fill-rule="nonzero" transform="matrix(0 -1 1 0 359.29 314.14)" fill="rgb(230, 230, 230)"/>
		<path d="M11.2 4.84L20.95 4.84C23.0682 4.83558 25.0993 4.41294 27.0433 3.57208C28.9874 2.73122 30.6863 1.54053 32.14 0L0 0C1.45492 1.54179 3.15534 2.73313 5.10129 3.57404C7.04723 4.41498 9.08014 4.83697 11.2 4.84Z" fill-rule="nonzero" transform="matrix(1 0 0 1 367.86 288)" fill="rgb(240, 240, 240)"/>
		<path d="M11.2 4.81L20.95 4.81C23.0677 4.81087 25.0994 4.39348 27.0451 3.55783C28.9909 2.7222 30.6925 1.53625 32.15 0L0 0C1.4575 1.53623 3.15913 2.72217 5.10489 3.5578C7.05067 4.39343 9.08238 4.81083 11.2 4.81Z" fill-rule="nonzero" transform="matrix(1 0 0 1 314.46 288.03)" fill="rgb(240, 240, 240)"/>
		<path d="M0 0L25.57 0L25.57 49.29L0 49.29L0 0Z" fill-rule="nonzero" transform="matrix(0 -1 1 0 306.39 274.39)" fill="rgb(230, 230, 230)"/>
		<path d="M0 0L25.57 0L25.57 49.29L0 49.29L0 0Z" fill-rule="nonzero" transform="matrix(0 -1 1 0 359.29 274.39)" fill="rgb(230, 230, 230)"/>
		<path d="M11.2 4.82L20.95 4.82C23.0687 4.82133 25.1012 4.40321 27.0474 3.56566C28.9935 2.72811 30.6944 1.53956 32.15 0L0 0C1.45561 1.53958 3.15649 2.72815 5.10266 3.5657C7.04883 4.40325 9.08128 4.82135 11.2 4.82Z" fill-rule="nonzero" transform="matrix(1 0 0 1 367.86 248.28)" fill="rgb(240, 240, 240)"/>
		<path d="M11.2 4.82L20.95 4.82C23.0688 4.82135 25.1012 4.40325 27.0474 3.5657C28.9936 2.72815 30.6944 1.53958 32.15 0L0 0C1.45559 1.53958 3.15646 2.72815 5.10263 3.5657C7.0488 4.40325 9.08126 4.82135 11.2 4.82Z" fill-rule="nonzero" transform="matrix(1 0 0 1 314.46 248.28)" fill="rgb(240, 240, 240)"/>
		<path d="M5.64001 15.3L11.02 15.3L11.02 0L0 0L5.64001 15.3Z" fill-rule="nonzero" transform="matrix(1 0 0 1 401.74 367.1)" fill="rgb(240, 240, 240)"/>
		<path d="M26.57 0L30.9 11.84L26.57 11.84L0 0L26.57 0Z" fill-rule="nonzero" transform="matrix(1 0 0 1 385.47 144.77)" fill="rgb(245, 245, 245)"/>
		<path d="M26.56 0L26.56 11.84L0 0L26.56 0Z" fill-rule="nonzero" transform="matrix(1 0 0 1 389.81 144.77)" fill="rgb(230, 230, 230)"/>
		<path d="M26.56 0L30.89 11.84L26.56 11.84L0 0L26.56 0Z" fill-rule="nonzero" transform="matrix(1 0 0 1 281.31 144.77)" fill="rgb(245, 245, 245)"/>
		<path d="M26.56 0L26.56 11.84L0 0L26.56 0Z" fill-rule="nonzero" transform="matrix(1 0 0 1 285.64 144.77)" fill="rgb(230, 230, 230)"/>
		<path d="M0 0L28.89 0L28.89 9.01L0 9.01L0 0Z" fill-rule="nonzero" transform="matrix(1 0 0 1 406.98 136.31)" fill="rgb(230, 230, 230)"/>
		<path d="M0 0L143.63 0L143.63 9.01L0 9.01L0 0Z" fill-rule="nonzero" transform="matrix(-1 0 0 -1 406.98 145.33)" fill="rgb(245, 245, 245)"/>
		<path d="M0 0C0 0 0.290009 31.32 11.1 31.32C21.91 31.32 22.19 0 22.19 0L0 0Z" fill-rule="nonzero" transform="matrix(1 0 0 1 377.81 105)" fill="rgb(240, 240, 240)"/>
		<path d="M0 0C0 0 0.76001 10.21 29.84 10.21C58.92 10.21 59.68 0 59.68 0L0 0Z" fill-rule="nonzero" transform="matrix(1 0 0 1 310.78 126.1)" fill="rgb(240, 240, 240)"/>
		<path d="M0 63.6201L1.92999 63.6201L7.45999 36.3701L8.45999 31.5901L14.46 1.89005L37.64 1.89005L50.17 63.6201L52.11 63.6201L39.34 0.76004C39.2967 0.537954 39.1874 0.355316 39.0122 0.212128C38.837 0.0689392 38.6363 -0.00175985 38.41 3.05176e-05L13.69 3.05176e-05C13.4649 -0.0013326 13.2656 0.0696716 13.0921 0.213043C12.9185 0.356394 12.8112 0.538727 12.77 0.76004L7.47 26.84L6.47 31.61L0 63.6201Z" fill-rule="nonzero" transform="matrix(1 0 0 1 224.36 318.78)" fill="rgb(240, 240, 240)"/>
		<path d="M0 63.59L1.92999 63.59L14.47 1.86002L37.59 1.86002L43.59 31.58L44.59 36.34L50.13 63.59L52.06 63.59L45.56 31.59L44.56 26.84L39.26 0.76004C39.2068 0.544037 39.094 0.365651 38.9218 0.224884C38.7495 0.0840963 38.5522 0.0091451 38.33 3.05176e-05L13.7 3.05176e-05C13.4737 -0.00175985 13.273 0.0689392 13.0978 0.212128C12.9226 0.355316 12.8133 0.537954 12.77 0.76004L0 63.59Z" fill-rule="nonzero" transform="matrix(1 0 0 1 187.23 318.81)" fill="rgb(240, 240, 240)"/>
		<path d="M73.09 0L5.82001 0C4.21399 0.00274658 2.84317 0.57193 1.70755 1.70755C0.57193 2.84317 0.00274658 4.21399 0 5.82001L0 6.02002C0 6.60819 0.207952 7.11024 0.623856 7.52615C1.03977 7.94205 1.54182 8.15 2.13 8.15002L76.78 8.15002C77.3682 8.15 77.8702 7.94205 78.2861 7.52615C78.702 7.11024 78.91 6.60819 78.91 6.02002L78.91 5.82001C78.9073 4.21399 78.3381 2.84317 77.2025 1.70755C76.0668 0.57193 74.696 0.00274658 73.09 0Z" fill-rule="nonzero" transform="matrix(1 0 0 1 192.37 311.58)" fill="rgb(240, 240, 240)"/>
		<path d="M0 63.6201L1.92999 63.6201L7.45999 36.3701L8.45999 31.5901L14.46 1.89005L37.58 1.89005L50.15 63.6201L52.09 63.6201L39.32 0.76004C39.2767 0.537954 39.1674 0.355316 38.9922 0.212128C38.817 0.0689392 38.6163 -0.00175985 38.39 3.05176e-05L13.69 3.05176e-05C13.4649 -0.0013326 13.2656 0.0696716 13.092 0.213043C12.9185 0.356394 12.8111 0.538727 12.77 0.76004L7.46999 26.84L6.46999 31.61L0 63.6201Z" fill-rule="nonzero" transform="matrix(1 0 0 1 156.85 318.78)" fill="rgb(240, 240, 240)"/>
		<path d="M0 63.62L1.94 63.62L14.47 1.89001L37.6 1.89001L43.6 31.61L44.6 36.37L50.14 63.62L52.07 63.62L45.57 31.62L44.57 26.87L39.28 0.76004C39.2268 0.544037 39.1141 0.365641 38.9418 0.224854C38.7695 0.0840861 38.5723 0.0091451 38.35 3.05176e-05L13.7 3.05176e-05C13.4737 -0.0017395 13.273 0.0689697 13.0978 0.212158C12.9226 0.355347 12.8133 0.537974 12.77 0.76004L0 63.62Z" fill-rule="nonzero" transform="matrix(1 0 0 1 119.72 318.78)" fill="rgb(240, 240, 240)"/>
		<path d="M73.14 0L5.82 0C4.21399 0.00274658 2.84318 0.57193 1.70756 1.70755C0.571943 2.84317 0.00275675 4.21399 0 5.82001L0 6.02002C-5.08626e-06 6.60819 0.207947 7.11024 0.623856 7.52615C1.03976 7.94205 1.54181 8.15 2.13 8.15002L76.79 8.15002C77.3774 8.15002 77.8783 7.94186 78.2926 7.52554C78.707 7.10924 78.9128 6.6074 78.91 6.02002L78.91 5.82001C78.9073 4.22369 78.3441 2.85872 77.2202 1.7251C76.0963 0.591471 74.7362 0.0164388 73.14 0Z" fill-rule="nonzero" transform="matrix(1 0 0 1 124.86 311.58)" fill="rgb(240, 240, 240)"/>
		<path d="M0 0L96.65 0L96.65 154.83L0 154.83L0 0Z" fill-rule="nonzero" transform="matrix(-1 0 0 -1 180.98 232.6)" fill="rgb(230, 230, 230)"/>
		<path d="M0 0L100.01 0L100.01 154.83L0 154.83L0 0Z" fill-rule="nonzero" transform="matrix(-1 0 0 -1 178.03 232.6)" fill="rgb(240, 240, 240)"/>
		<path d="M0 0L96.65 0L96.65 11.74L0 11.74L0 0Z" fill-rule="nonzero" transform="matrix(-1 0 0 -1 180.98 244.33)" fill="rgb(230, 230, 230)"/>
		<path d="M0 0L100.01 0L100.01 11.74L0 11.74L0 0Z" fill-rule="nonzero" transform="matrix(-1 0 0 -1 167.51 244.33)" fill="rgb(240, 240, 240)"/>
		<path d="M0 0L137.15 0L137.15 82.33L0 82.33L0 0Z" fill-rule="nonzero" transform="matrix(0 1 -1 0 169.18 86.61)" fill="rgb(250, 250, 250)"/>
		<path d="M53.46 137.14L24.5 0L0 0L28.96 137.14L53.46 137.14Z" fill-rule="nonzero" transform="matrix(1 0 0 1 116.43 86.61)" fill="rgb(155, 140, 140)"/>
		<path d="M0.62999 115.64C0.80396 115.64 0.952449 115.578 1.07545 115.455C1.19847 115.332 1.25998 115.184 1.25999 115.01L1.25999 0.629997C1.25998 0.456027 1.19847 0.307533 1.07545 0.184517C0.952449 0.0615056 0.80396 0 0.62999 0C0.456019 0 0.307526 0.0615056 0.184509 0.184517C0.0614929 0.307533 -1.01725e-05 0.456027 0 0.629997L0 115.01C-1.01725e-05 115.184 0.0614929 115.332 0.184509 115.455C0.307526 115.578 0.456019 115.64 0.62999 115.64Z" fill-rule="nonzero" transform="matrix(1 0 0 1 162.59 91.73)" fill="rgb(240, 240, 240)"/>
		<path d="M38.51 137.14L9.55 0L0 0L28.95 137.14L38.51 137.14Z" fill-rule="nonzero" transform="matrix(1 0 0 1 101.62 86.61)" fill="rgb(155, 140, 140)"/>
		<path d="M0 0L137.15 0L137.15 1.12L0 1.12L0 0Z" fill-rule="nonzero" transform="matrix(0 1 -1 0 87.98 86.61)" fill="rgb(230, 230, 230)"/>
		<path d="M0 3.36L96.65 3.36L97.47 0L0.82 0L0 3.36Z" fill-rule="nonzero" transform="matrix(1 0 0 1 75.92 90.04)" fill="rgb(240, 240, 240)" opacity="0.6"/>
		<path d="M0 3.35L96.65 3.35L97.47 0L0.82 0L0 3.35Z" fill-rule="nonzero" transform="matrix(1 0 0 1 75.92 97.86)" fill="rgb(240, 240, 240)" opacity="0.6"/>
		<path d="M0 3.36L96.65 3.36L97.47 0L0.82 0L0 3.36Z" fill-rule="nonzero" transform="matrix(1 0 0 1 75.92 105.67)" fill="rgb(240, 240, 240)" opacity="0.6"/>
		<path d="M0 3.35L96.65 3.35L97.47 0L0.82 0L0 3.35Z" fill-rule="nonzero" transform="matrix(1 0 0 1 75.92 113.49)" fill="rgb(240, 240, 240)" opacity="0.6"/>
		<path d="M0 3.35001L96.65 3.35001L97.47 0L0.82 0L0 3.35001Z" fill-rule="nonzero" transform="matrix(1 0 0 1 75.92 121.31)" fill="rgb(240, 240, 240)" opacity="0.6"/>
		<path d="M0 3.36L96.65 3.36L97.47 0L0.82 0L0 3.36Z" fill-rule="nonzero" transform="matrix(1 0 0 1 75.92 129.12)" fill="rgb(240, 240, 240)" opacity="0.6"/>
		<path d="M193.89 0C300.973 0 387.78 5.06814 387.78 11.32C387.78 17.5719 300.973 22.64 193.89 22.64C86.8075 22.64 0 17.5719 0 11.32C0 5.06814 86.8075 0 193.89 0Z" fill-rule="nonzero" transform="matrix(1 0 0 1 56.11 404.92)" fill="rgb(245, 245, 245)"/>
		<path d="M1.56 0C0.698436 0 0 0.698436 0 1.56L0 27.04C0 27.9016 0.698435 28.6 1.56 28.6L62.65 28.6C63.5116 28.6 64.21 27.9016 64.21 27.04L64.21 1.56C64.21 0.698436 63.5116 0 62.65 0L1.56 0Z" fill-rule="nonzero" transform="matrix(1 0 0 1 180.47 262.73)" fill="rgb(176, 190, 197)"/>
		<path d="M1.56 0C0.698436 0 0 0.698436 0 1.56L0 27.04C0 27.9016 0.698435 28.6 1.56 28.6L62.65 28.6C63.5116 28.6 64.21 27.9016 64.21 27.04L64.21 1.56C64.21 0.698436 63.5116 0 62.65 0L1.56 0Z" fill-rule="nonzero" transform="matrix(1 0 0 1 180.47 262.73)" fill="rgb(155, 140, 140)" opacity="0.6"/>
		<path d="M62.67 0L1.56 0C1.12921 0 0.761515 0.152303 0.456909 0.456909C0.152303 0.761515 0 1.12921 0 1.56L0 9.73001L31.8 15.99C31.8973 16.01 31.9957 16.02 32.095 16.02C32.1944 16.02 32.2927 16.01 32.39 15.99L64.2 9.73001L64.2 1.56C64.2001 1.13499 64.0513 0.770782 63.7537 0.467377C63.4562 0.163951 63.0949 0.00815837 62.67 0Z" fill-rule="nonzero" transform="matrix(1 0 0 1 180.44 262.73)" fill="rgb(0, 0, 0)" opacity="0.1"/>
		<path d="M65.28 8.01001L46.62 8.01001L46.62 4.88C46.6172 3.53356 46.1398 2.3843 45.1877 1.43224C44.2357 0.480148 43.0864 0.00273641 41.74 0L25.07 0C23.7236 0.00275675 22.5743 0.480169 21.6222 1.43224C20.6702 2.38432 20.1927 3.53358 20.19 4.88L20.19 8.01001L1.53999 8.01001C1.11473 8.01001 0.75175 8.16037 0.45105 8.46107C0.15035 8.76178 0 9.12475 0 9.55L0 24.96C0.00206502 25.3266 0.119441 25.6516 0.352127 25.935C0.584813 26.2184 0.880773 26.3967 1.24001 26.47L33.11 32.74C33.2077 32.755 33.3061 32.7625 33.405 32.7625C33.5039 32.7625 33.6022 32.755 33.7 32.74L65.57 26.47C65.9302 26.397 66.2274 26.219 66.4618 25.9359C66.6961 25.6528 66.8155 25.3275 66.82 24.96L66.82 9.55C66.82 9.12474 66.6696 8.76176 66.3689 8.46106C66.0682 8.16036 65.7052 8.01001 65.28 8.01001ZM23.9 4.88C23.9026 4.5572 24.0176 4.28118 24.2449 4.05196C24.4722 3.82273 24.7472 3.70541 25.07 3.70001L41.74 3.70001C42.0627 3.70541 42.3377 3.82273 42.565 4.05196C42.7923 4.28118 42.9073 4.5572 42.91 4.88L42.91 8.01001L23.91 8.01001L23.9 4.88Z" fill-rule="nonzero" transform="matrix(1 0 0 1 179.17 244.26)" fill="rgb(176, 190, 197)"/>
		<path d="M65.28 8.01001L46.62 8.01001L46.62 4.88C46.6172 3.53356 46.1398 2.3843 45.1877 1.43224C44.2357 0.480148 43.0864 0.00273641 41.74 0L25.07 0C23.7236 0.00275675 22.5743 0.480169 21.6222 1.43224C20.6702 2.38432 20.1927 3.53358 20.19 4.88L20.19 8.01001L1.53999 8.01001C1.11473 8.01001 0.75175 8.16037 0.45105 8.46107C0.15035 8.76178 0 9.12475 0 9.55L0 24.96C0.00206502 25.3266 0.119441 25.6516 0.352127 25.935C0.584813 26.2184 0.880773 26.3967 1.24001 26.47L33.11 32.74C33.2077 32.755 33.3061 32.7625 33.405 32.7625C33.5039 32.7625 33.6022 32.755 33.7 32.74L65.57 26.47C65.9302 26.397 66.2274 26.219 66.4618 25.9359C66.6961 25.6528 66.8155 25.3275 66.82 24.96L66.82 9.55C66.82 9.12474 66.6696 8.76176 66.3689 8.46106C66.0682 8.16036 65.7052 8.01001 65.28 8.01001ZM23.9 4.88C23.9026 4.5572 24.0176 4.28118 24.2449 4.05196C24.4722 3.82273 24.7472 3.70541 25.07 3.70001L41.74 3.70001C42.0627 3.70541 42.3377 3.82273 42.565 4.05196C42.7923 4.28118 42.9073 4.5572 42.91 4.88L42.91 8.01001L23.91 8.01001L23.9 4.88Z" fill-rule="nonzero" transform="matrix(1 0 0 1 179.17 244.26)" fill="rgb(155, 140, 140)" opacity="0.6"/>
		<path d="M1.48 0C0.662619 0 0 0.662619 0 1.48L0 5.64C0 6.45738 0.662619 7.12 1.48 7.12L8.06 7.12C8.87738 7.12 9.54 6.45738 9.54 5.64L9.54 1.48C9.54 0.662619 8.87738 0 8.06 0L1.48 0Z" fill-rule="nonzero" transform="matrix(1 0 0 1 207.81 272.79)" fill="rgb(176, 190, 197)"/>
		<path d="M1.48 0C0.662619 0 0 0.662619 0 1.48L0 5.64C0 6.45738 0.662619 7.12 1.48 7.12L8.06 7.12C8.87738 7.12 9.54 6.45738 9.54 5.64L9.54 1.48C9.54 0.662619 8.87738 0 8.06 0L1.48 0Z" fill-rule="nonzero" transform="matrix(1 0 0 1 207.81 272.79)" fill="rgb(155, 140, 140)" opacity="0.3"/>
		<path d="M1.56 0C0.698436 0 0 0.698436 0 1.56L0 27.04C0 27.9016 0.698435 28.6 1.56 28.6L62.65 28.6C63.5116 28.6 64.21 27.9016 64.21 27.04L64.21 1.56C64.21 0.698436 63.5116 0 62.65 0L1.56 0Z" fill-rule="nonzero" transform="matrix(1 0 0 1 180.47 78.77)" fill="rgb(176, 190, 197)"/>
		<path d="M1.56 0C0.698436 0 0 0.698436 0 1.56L0 27.04C0 27.9016 0.698435 28.6 1.56 28.6L62.65 28.6C63.5116 28.6 64.21 27.9016 64.21 27.04L64.21 1.56C64.21 0.698436 63.5116 0 62.65 0L1.56 0Z" fill-rule="nonzero" transform="matrix(1 0 0 1 180.47 78.77)" fill="rgb(155, 140, 140)" opacity="0.6"/>
		<path d="M62.67 0L1.56 0C1.12921 0 0.761515 0.152306 0.456909 0.456917C0.152303 0.761523 0 1.12922 0 1.56L0 9.73L31.8 15.99C31.8973 16.0099 31.9957 16.0199 32.095 16.0199C32.1943 16.0199 32.2927 16.0099 32.39 15.99L64.2 9.73L64.2 1.56001C64.2001 1.13502 64.0513 0.770813 63.7538 0.467392C63.4562 0.163971 63.0949 0.00817362 62.67 0Z" fill-rule="nonzero" transform="matrix(1 0 0 1 180.44 78.77)" fill="rgb(0, 0, 0)" opacity="0.1"/>
		<path d="M65.28 8.01L46.62 8.01L46.62 4.88C46.6172 3.53357 46.1398 2.38431 45.1878 1.43224C44.2357 0.480162 43.0864 0.00274913 41.74 0L25.07 0C23.7236 0.00274913 22.5743 0.480161 21.6222 1.43224C20.6701 2.38431 20.1927 3.53357 20.19 4.88L20.19 8.01L1.53999 8.01C1.11473 8.01 0.75175 8.16035 0.45105 8.46105C0.15035 8.76175 0 9.12474 0 9.55L0 24.96C0.00012207 25.3273 0.11675 25.653 0.349884 25.9368C0.582998 26.2207 0.879705 26.3984 1.24001 26.47L33.11 32.7C33.2073 32.7199 33.3056 32.7299 33.405 32.7299C33.5043 32.7299 33.6026 32.7199 33.7 32.7L65.57 26.43C65.926 26.3624 66.2219 26.1911 66.4577 25.9159C66.6936 25.6408 66.8177 25.3222 66.83 24.96L66.83 9.55C66.83 9.12277 66.6785 8.75861 66.3754 8.45749C66.0723 8.15639 65.7072 8.00722 65.28 8.01ZM23.9 4.88C23.9 4.5561 24.014 4.27914 24.2421 4.04914C24.4701 3.81913 24.7461 3.70275 25.07 3.7L41.74 3.7C42.062 3.70272 42.3368 3.81791 42.5644 4.04557C42.7921 4.27323 42.9073 4.54804 42.91 4.87L42.91 8L23.91 8L23.9 4.88Z" fill-rule="nonzero" transform="matrix(1 0 0 1 179.17 60.3)" fill="rgb(176, 190, 197)"/>
		<path d="M65.28 8.01L46.62 8.01L46.62 4.88C46.6172 3.53357 46.1398 2.38431 45.1878 1.43224C44.2357 0.480162 43.0864 0.00274913 41.74 0L25.07 0C23.7236 0.00274913 22.5743 0.480161 21.6222 1.43224C20.6701 2.38431 20.1927 3.53357 20.19 4.88L20.19 8.01L1.53999 8.01C1.11473 8.01 0.75175 8.16035 0.45105 8.46105C0.15035 8.76175 0 9.12474 0 9.55L0 24.96C0.00012207 25.3273 0.11675 25.653 0.349884 25.9368C0.582998 26.2207 0.879705 26.3984 1.24001 26.47L33.11 32.7C33.2073 32.7199 33.3056 32.7299 33.405 32.7299C33.5043 32.7299 33.6026 32.7199 33.7 32.7L65.57 26.43C65.926 26.3624 66.2219 26.1911 66.4577 25.9159C66.6936 25.6408 66.8177 25.3222 66.83 24.96L66.83 9.55C66.83 9.12277 66.6785 8.75861 66.3754 8.45749C66.0723 8.15639 65.7072 8.00722 65.28 8.01ZM23.9 4.88C23.9 4.5561 24.014 4.27914 24.2421 4.04914C24.4701 3.81913 24.7461 3.70275 25.07 3.7L41.74 3.7C42.062 3.70272 42.3368 3.81791 42.5644 4.04557C42.7921 4.27323 42.9073 4.54804 42.91 4.87L42.91 8L23.91 8L23.9 4.88Z" fill-rule="nonzero" transform="matrix(1 0 0 1 179.17 60.3)" fill="rgb(155, 140, 140)" opacity="0.6"/>
		<path d="M1.48 0C0.662619 0 0 0.662619 0 1.48L0 5.64C0 6.45738 0.662619 7.12 1.48 7.12L8.06 7.12C8.87738 7.12 9.54 6.45738 9.54 5.64L9.54 1.48C9.54 0.662619 8.87738 0 8.06 0L1.48 0Z" fill-rule="nonzero" transform="matrix(1 0 0 1 207.81 88.84)" fill="rgb(176, 190, 197)"/>
		<path d="M1.48 0C0.662619 0 0 0.662619 0 1.48L0 5.64C0 6.45738 0.662619 7.12 1.48 7.12L8.06 7.12C8.87738 7.12 9.54 6.45738 9.54 5.64L9.54 1.48C9.54 0.662619 8.87738 0 8.06 0L1.48 0Z" fill-rule="nonzero" transform="matrix(1 0 0 1 207.81 88.84)" fill="rgb(155, 140, 140)" opacity="0.3"/>
		<path d="M1.56 0C0.698436 0 0 0.698436 0 1.56L0 27.04C0 27.9016 0.698435 28.6 1.56 28.6L62.65 28.6C63.5116 28.6 64.21 27.9016 64.21 27.04L64.21 1.56C64.21 0.698436 63.5116 0 62.65 0L1.56 0Z" fill-rule="nonzero" transform="matrix(1 0 0 1 85.31 262.73)" fill="rgb(176, 190, 197)"/>
		<path d="M1.56 0C0.698436 0 0 0.698436 0 1.56L0 27.04C0 27.9016 0.698435 28.6 1.56 28.6L62.65 28.6C63.5116 28.6 64.21 27.9016 64.21 27.04L64.21 1.56C64.21 0.698436 63.5116 0 62.65 0L1.56 0Z" fill-rule="nonzero" transform="matrix(1 0 0 1 85.31 262.73)" fill="rgb(155, 140, 140)" opacity="0.6"/>
		<path d="M62.69 0L1.56 0C1.12922 0 0.761523 0.152303 0.456917 0.456909C0.152306 0.761515 0 1.12921 0 1.56L0 9.73001L31.8 15.99C31.899 16.01 31.999 16.0199 32.1 16.0199C32.201 16.0199 32.301 16.01 32.4 15.99L64.21 9.73001L64.21 1.56C64.2101 1.1369 64.0626 0.773834 63.7673 0.470795C63.4721 0.167775 63.113 0.0108439 62.69 0Z" fill-rule="nonzero" transform="matrix(1 0 0 1 85.31 262.73)" fill="rgb(0, 0, 0)" opacity="0.1"/>
		<path d="M65.28 8.01001L46.62 8.01001L46.62 4.88C46.6172 3.53356 46.1398 2.3843 45.1877 1.43222C44.2357 0.480153 43.0864 0.00274658 41.74 0L25.08 0C23.7336 0.00274658 22.5843 0.480158 21.6322 1.43224C20.6802 2.38431 20.2028 3.53357 20.2 4.88L20.2 8.01001L1.54 8.01001C1.11474 8.01001 0.75176 8.16037 0.45105 8.46107C0.15035 8.76178 0 9.12475 0 9.55L0 24.96C0.00205485 25.3266 0.119425 25.6516 0.352112 25.935C0.584798 26.2183 0.88076 26.3967 1.24 26.47L33.11 32.74C33.2094 32.7551 33.3094 32.7626 33.41 32.7626C33.5106 32.7626 33.6106 32.7551 33.71 32.74L65.58 26.47C65.9392 26.3967 66.2352 26.2184 66.4679 25.935C66.7006 25.6516 66.818 25.3266 66.82 24.96L66.82 9.55C66.82 9.12474 66.6696 8.76176 66.3689 8.46106C66.0682 8.16036 65.7053 8.01001 65.28 8.01001ZM23.9 4.88C23.9053 4.55641 24.0224 4.28018 24.2513 4.05132C24.4801 3.82245 24.7564 3.70535 25.08 3.70001L41.74 3.70001C42.0636 3.70537 42.3398 3.82247 42.5687 4.05132C42.7975 4.28018 42.9146 4.55641 42.92 4.88L42.92 8.01001L23.92 8.01001L23.9 4.88Z" fill-rule="nonzero" transform="matrix(1 0 0 1 84 244.26)" fill="rgb(176, 190, 197)"/>
		<path d="M65.28 8.01001L46.62 8.01001L46.62 4.88C46.6172 3.53356 46.1398 2.3843 45.1877 1.43222C44.2357 0.480153 43.0864 0.00274658 41.74 0L25.08 0C23.7336 0.00274658 22.5843 0.480158 21.6322 1.43224C20.6802 2.38431 20.2028 3.53357 20.2 4.88L20.2 8.01001L1.54 8.01001C1.11474 8.01001 0.75176 8.16037 0.45105 8.46107C0.15035 8.76178 0 9.12475 0 9.55L0 24.96C0.00205485 25.3266 0.119425 25.6516 0.352112 25.935C0.584798 26.2183 0.88076 26.3967 1.24 26.47L33.11 32.74C33.2094 32.7551 33.3094 32.7626 33.41 32.7626C33.5106 32.7626 33.6106 32.7551 33.71 32.74L65.58 26.47C65.9392 26.3967 66.2352 26.2184 66.4679 25.935C66.7006 25.6516 66.818 25.3266 66.82 24.96L66.82 9.55C66.82 9.12474 66.6696 8.76176 66.3689 8.46106C66.0682 8.16036 65.7053 8.01001 65.28 8.01001ZM23.9 4.88C23.9053 4.55641 24.0224 4.28018 24.2513 4.05132C24.4801 3.82245 24.7564 3.70535 25.08 3.70001L41.74 3.70001C42.0636 3.70537 42.3398 3.82247 42.5687 4.05132C42.7975 4.28018 42.9146 4.55641 42.92 4.88L42.92 8.01001L23.92 8.01001L23.9 4.88Z" fill-rule="nonzero" transform="matrix(1 0 0 1 84 244.26)" fill="rgb(155, 140, 140)" opacity="0.6"/>
		<path d="M1.48 0C0.662619 0 0 0.662619 0 1.48L0 5.64C0 6.45738 0.662619 7.12 1.48 7.12L8.06 7.12C8.87738 7.12 9.54 6.45738 9.54 5.64L9.54 1.48C9.54 0.662619 8.87738 0 8.06 0L1.48 0Z" fill-rule="nonzero" transform="matrix(1 0 0 1 112.64 272.79)" fill="rgb(176, 190, 197)"/>
		<path d="M1.48 0C0.662619 0 0 0.662619 0 1.48L0 5.64C0 6.45738 0.662619 7.12 1.48 7.12L8.06 7.12C8.87738 7.12 9.54 6.45738 9.54 5.64L9.54 1.48C9.54 0.662619 8.87738 0 8.06 0L1.48 0Z" fill-rule="nonzero" transform="matrix(1 0 0 1 112.64 272.79)" fill="rgb(155, 140, 140)" opacity="0.3"/>
		<path d="M1.56 0C0.698436 0 0 0.698436 0 1.56L0 27.04C0 27.9016 0.698435 28.6 1.56 28.6L62.65 28.6C63.5116 28.6 64.21 27.9016 64.21 27.04L64.21 1.56C64.21 0.698436 63.5116 0 62.65 0L1.56 0Z" fill-rule="nonzero" transform="matrix(1 0 0 1 85.31 78.77)" fill="rgb(176, 190, 197)"/>
		<path d="M1.56 0C0.698436 0 0 0.698436 0 1.56L0 27.04C0 27.9016 0.698435 28.6 1.56 28.6L62.65 28.6C63.5116 28.6 64.21 27.9016 64.21 27.04L64.21 1.56C64.21 0.698436 63.5116 0 62.65 0L1.56 0Z" fill-rule="nonzero" transform="matrix(1 0 0 1 85.31 78.77)" fill="rgb(155, 140, 140)" opacity="0.6"/>
		<path d="M62.69 0L1.56 0C1.12922 0 0.761523 0.152306 0.456917 0.456917C0.152306 0.761523 0 1.12922 0 1.56L0 9.73L31.8 15.99C31.899 16.0101 31.999 16.0201 32.1 16.0201C32.201 16.0201 32.301 16.0101 32.4 15.99L64.21 9.73L64.21 1.56001C64.2101 1.13691 64.0626 0.773844 63.7673 0.47081C63.4721 0.167775 63.1129 0.0108388 62.69 0Z" fill-rule="nonzero" transform="matrix(1 0 0 1 85.31 78.77)" fill="rgb(0, 0, 0)" opacity="0.1"/>
		<path d="M65.28 8.01L46.62 8.01L46.62 4.88C46.6172 3.53357 46.1398 2.38431 45.1877 1.43224C44.2357 0.480167 43.0864 0.00275421 41.74 0L25.08 0C23.7336 0.00274658 22.5843 0.480157 21.6322 1.43223C20.6802 2.38431 20.2028 3.53356 20.2 4.88L20.2 8.01L1.54 8.01C1.11474 8.01 0.75176 8.16035 0.45105 8.46105C0.15035 8.76175 0 9.12474 0 9.55L0 24.96C0.00012207 25.3273 0.116745 25.653 0.349869 25.9368C0.582993 26.2207 0.879702 26.3984 1.24 26.47L33.11 32.7C33.209 32.7201 33.309 32.7301 33.41 32.7301C33.511 32.7301 33.611 32.7201 33.71 32.7L65.58 26.43C65.9403 26.3584 66.237 26.1807 66.4701 25.8968C66.7033 25.613 66.8199 25.2873 66.82 24.92L66.82 9.55C66.82 9.12473 66.6696 8.76175 66.3689 8.46105C66.0682 8.16034 65.7053 8.00999 65.28 8.01ZM23.9 4.88C23.9027 4.55528 24.0189 4.27812 24.2485 4.0485C24.4781 3.81888 24.7553 3.70272 25.08 3.7L41.74 3.7C42.0628 3.70266 42.3388 3.81763 42.568 4.04492C42.7973 4.27221 42.9146 4.54724 42.92 4.87L42.92 8L23.92 8L23.9 4.88Z" fill-rule="nonzero" transform="matrix(1 0 0 1 84 60.3)" fill="rgb(176, 190, 197)"/>
		<path d="M65.28 8.01L46.62 8.01L46.62 4.88C46.6172 3.53357 46.1398 2.38431 45.1877 1.43224C44.2357 0.480167 43.0864 0.00275421 41.74 0L25.08 0C23.7336 0.00274658 22.5843 0.480157 21.6322 1.43223C20.6802 2.38431 20.2028 3.53356 20.2 4.88L20.2 8.01L1.54 8.01C1.11474 8.01 0.75176 8.16035 0.45105 8.46105C0.15035 8.76175 0 9.12474 0 9.55L0 24.96C0.00012207 25.3273 0.116745 25.653 0.349869 25.9368C0.582993 26.2207 0.879702 26.3984 1.24 26.47L33.11 32.7C33.209 32.7201 33.309 32.7301 33.41 32.7301C33.511 32.7301 33.611 32.7201 33.71 32.7L65.58 26.43C65.9403 26.3584 66.237 26.1807 66.4701 25.8968C66.7033 25.613 66.8199 25.2873 66.82 24.92L66.82 9.55C66.82 9.12473 66.6696 8.76175 66.3689 8.46105C66.0682 8.16034 65.7053 8.00999 65.28 8.01ZM23.9 4.88C23.9027 4.55528 24.0189 4.27812 24.2485 4.0485C24.4781 3.81888 24.7553 3.70272 25.08 3.7L41.74 3.7C42.0628 3.70266 42.3388 3.81763 42.568 4.04492C42.7973 4.27221 42.9146 4.54724 42.92 4.87L42.92 8L23.92 8L23.9 4.88Z" fill-rule="nonzero" transform="matrix(1 0 0 1 84 60.3)" fill="rgb(155, 140, 140)" opacity="0.6"/>
		<path d="M1.48 0C0.662619 0 0 0.662619 0 1.48L0 5.64C0 6.45738 0.662619 7.12 1.48 7.12L8.06 7.12C8.87738 7.12 9.54 6.45738 9.54 5.64L9.54 1.48C9.54 0.662619 8.87738 0 8.06 0L1.48 0Z" fill-rule="nonzero" transform="matrix(1 0 0 1 112.64 88.84)" fill="rgb(176, 190, 197)"/>
		<path d="M1.48 0C0.662619 0 0 0.662619 0 1.48L0 5.64C0 6.45738 0.662619 7.12 1.48 7.12L8.06 7.12C8.87738 7.12 9.54 6.45738 9.54 5.64L9.54 1.48C9.54 0.662619 8.87738 0 8.06 0L1.48 0Z" fill-rule="nonzero" transform="matrix(1 0 0 1 112.64 88.84)" fill="rgb(155, 140, 140)" opacity="0.3"/>
		<path d="M54.7 28.6L1.57 28.6C1.13646 28.6 0.766411 28.4467 0.459846 28.1402C0.153282 27.8336 0 27.4636 0 27.03L0 1.56C0.000773112 1.45498 0.0121053 1.3511 0.0339966 1.24838C0.0558879 1.14567 0.0878881 1.04621 0.129997 0.949997C0.150322 0.905106 0.172165 0.860962 0.195526 0.817566C0.218887 0.77419 0.243711 0.731669 0.269997 0.690002C0.297829 0.647207 0.328491 0.606547 0.361984 0.568024C0.395482 0.52951 0.431486 0.493505 0.469994 0.460007C0.615639 0.313543 0.783745 0.200465 0.974312 0.120773C1.16488 0.0410817 1.36344 0.000823975 1.56999 0L51.86 0C51.6508 1.74502 51.512 3.49561 51.4436 5.25177C51.3751 7.00795 51.3773 8.76402 51.45 10.52C51.45 11.09 51.45 11.66 51.54 12.22C51.61 13.27 51.69 14.33 51.81 15.38C52.0674 17.6265 52.4375 19.8542 52.9204 22.0631C53.4033 24.2721 53.9965 26.4511 54.7 28.6Z" fill-rule="nonzero" transform="matrix(1 0 0 1 85.3 170.75)" fill="rgb(176, 190, 197)"/>
		<path d="M54.7 28.6L1.57 28.6C1.13646 28.6 0.766411 28.4467 0.459846 28.1402C0.153282 27.8336 0 27.4636 0 27.03L0 1.56C0.000773112 1.45498 0.0121053 1.3511 0.0339966 1.24838C0.0558879 1.14567 0.0878881 1.04621 0.129997 0.949997C0.150322 0.905106 0.172165 0.860962 0.195526 0.817566C0.218887 0.77419 0.243711 0.731669 0.269997 0.690002C0.297829 0.647207 0.328491 0.606547 0.361984 0.568024C0.395482 0.52951 0.431486 0.493505 0.469994 0.460007C0.615639 0.313543 0.783745 0.200465 0.974312 0.120773C1.16488 0.0410817 1.36344 0.000823975 1.56999 0L51.86 0C51.6508 1.74502 51.512 3.49561 51.4436 5.25177C51.3751 7.00795 51.3773 8.76402 51.45 10.52C51.45 11.09 51.45 11.66 51.54 12.22C51.61 13.27 51.69 14.33 51.81 15.38C52.0674 17.6265 52.4375 19.8542 52.9204 22.0631C53.4033 24.2721 53.9965 26.4511 54.7 28.6Z" fill-rule="nonzero" transform="matrix(1 0 0 1 85.3 170.75)" fill="rgb(155, 140, 140)" opacity="0.6"/>
		<path d="M51.85 0C51.6408 1.74502 51.502 3.49561 51.4336 5.25177C51.3651 7.00795 51.3673 8.76402 51.44 10.52C51.44 11.09 51.44 11.66 51.53 12.22L36.87 15.1L32.39 15.98C32.2933 16.005 32.1949 16.0175 32.095 16.0175C31.9951 16.0175 31.8967 16.005 31.8 15.98L27.33 15.11L0 9.73001L0 1.55C0.00158183 1.44719 0.0124588 1.34537 0.0326309 1.24454C0.0527929 1.1437 0.0819168 1.04552 0.120003 0.949997C0.140327 0.905106 0.16217 0.860962 0.185532 0.817566C0.208893 0.77419 0.233716 0.731669 0.260002 0.690002C0.287834 0.647217 0.318497 0.606562 0.35199 0.568039C0.385483 0.529526 0.421486 0.493515 0.459999 0.460007C0.605644 0.313543 0.77375 0.200465 0.964317 0.120773C1.15488 0.0410817 1.35344 0.000823975 1.56 0L51.85 0Z" fill-rule="nonzero" transform="matrix(1 0 0 1 85.31 170.75)" fill="rgb(0, 0, 0)" opacity="0.1"/>
		<path d="M55.25 8.01001L46.63 8.01001L46.63 4.88C46.6245 3.53277 46.1449 2.38331 45.1913 1.43163C44.2377 0.479945 43.0873 0.00273641 41.74 0L25.08 0C23.7324 0 22.5822 0.47644 21.6293 1.42932C20.6764 2.3822 20.2 3.53243 20.2 4.88L20.2 8.01001L1.54 8.01001C1.11474 8.01001 0.751765 8.16037 0.451065 8.46107C0.150355 8.76178 0 9.12476 0 9.55002L0 24.95C0.000167847 25.3201 0.117777 25.648 0.352829 25.9339C0.587886 26.2197 0.886943 26.3984 1.25 26.47L1.31 26.47L28.64 31.86L33.11 32.73C33.2073 32.75 33.3057 32.7599 33.405 32.7599C33.5044 32.7599 33.6027 32.75 33.7 32.73L38.18 31.85L52.75 28.98C52.6773 27.224 52.6751 25.4679 52.7436 23.7118C52.812 21.9556 52.9508 20.205 53.16 18.46C53.3677 16.6931 53.6459 14.9375 53.9948 13.193C54.3437 11.4485 54.7621 9.72084 55.25 8.01001ZM23.9 4.88C23.9054 4.55724 24.0227 4.28222 24.252 4.05493C24.4812 3.82765 24.7572 3.71267 25.08 3.71001L41.74 3.71001C42.062 3.71272 42.3368 3.82791 42.5644 4.05557C42.7921 4.28324 42.9073 4.55805 42.91 4.88L42.91 8.01001L23.91 8.01001L23.9 4.88Z" fill-rule="nonzero" transform="matrix(1 0 0 1 84 152.28)" fill="rgb(176, 190, 197)"/>
		<path d="M55.25 8.01001L46.63 8.01001L46.63 4.88C46.6245 3.53277 46.1449 2.38331 45.1913 1.43163C44.2377 0.479945 43.0873 0.00273641 41.74 0L25.08 0C23.7324 0 22.5822 0.47644 21.6293 1.42932C20.6764 2.3822 20.2 3.53243 20.2 4.88L20.2 8.01001L1.54 8.01001C1.11474 8.01001 0.751765 8.16037 0.451065 8.46107C0.150355 8.76178 0 9.12476 0 9.55002L0 24.95C0.000167847 25.3201 0.117777 25.648 0.352829 25.9339C0.587886 26.2197 0.886943 26.3984 1.25 26.47L1.31 26.47L28.64 31.86L33.11 32.73C33.2073 32.75 33.3057 32.7599 33.405 32.7599C33.5044 32.7599 33.6027 32.75 33.7 32.73L38.18 31.85L52.75 28.98C52.6773 27.224 52.6751 25.4679 52.7436 23.7118C52.812 21.9556 52.9508 20.205 53.16 18.46C53.3677 16.6931 53.6459 14.9375 53.9948 13.193C54.3437 11.4485 54.7621 9.72084 55.25 8.01001ZM23.9 4.88C23.9054 4.55724 24.0227 4.28222 24.252 4.05493C24.4812 3.82765 24.7572 3.71267 25.08 3.71001L41.74 3.71001C42.062 3.71272 42.3368 3.82791 42.5644 4.05557C42.7921 4.28324 42.9073 4.55805 42.91 4.88L42.91 8.01001L23.91 8.01001L23.9 4.88Z" fill-rule="nonzero" transform="matrix(1 0 0 1 84 152.28)" fill="rgb(155, 140, 140)" opacity="0.6"/>
		<path d="M1.48 0C0.662619 0 0 0.662619 0 1.48L0 5.64C0 6.45738 0.662619 7.12 1.48 7.12L8.06 7.12C8.87738 7.12 9.54 6.45738 9.54 5.64L9.54 1.48C9.54 0.662619 8.87738 0 8.06 0L1.48 0Z" fill-rule="nonzero" transform="matrix(1 0 0 1 112.64 180.81)" fill="rgb(176, 190, 197)"/>
		<path d="M1.48 0C0.662619 0 0 0.662619 0 1.48L0 5.64C0 6.45738 0.662619 7.12 1.48 7.12L8.06 7.12C8.87738 7.12 9.54 6.45738 9.54 5.64L9.54 1.48C9.54 0.662619 8.87738 0 8.06 0L1.48 0Z" fill-rule="nonzero" transform="matrix(1 0 0 1 112.64 180.81)" fill="rgb(155, 140, 140)" opacity="0.3"/>
		<path d="M1.56 0C0.698436 0 0 0.698436 0 1.56L0 27.04C0 27.9016 0.698435 28.6 1.56 28.6L62.65 28.6C63.5116 28.6 64.21 27.9016 64.21 27.04L64.21 1.56C64.21 0.698436 63.5116 0 62.65 0L1.56 0Z" fill-rule="nonzero" transform="matrix(-1 0 0 -1 339.84 291.32)" fill="rgb(176, 190, 197)"/>
		<path d="M1.56 0C0.698436 0 0 0.698436 0 1.56L0 27.04C0 27.9016 0.698435 28.6 1.56 28.6L62.65 28.6C63.5116 28.6 64.21 27.9016 64.21 27.04L64.21 1.56C64.21 0.698436 63.5116 0 62.65 0L1.56 0Z" fill-rule="nonzero" transform="matrix(-1 0 0 -1 339.84 291.32)" fill="rgb(155, 140, 140)" opacity="0.6"/>
		<path d="M1.60001 0.000610352L62.68 0.000610352C63.1108 0.000610352 63.4785 0.152914 63.7831 0.45752C64.0877 0.762106 64.24 1.1298 64.24 1.56061L64.24 9.73063L32.4 15.9906C32.3027 16.0105 32.2043 16.0205 32.105 16.0205C32.0056 16.0205 31.9073 16.0105 31.81 15.9906L0 9.7306L0 1.56058C-0.000142415 1.12188 0.15685 0.7494 0.470978 0.443146C0.785105 0.136871 1.16145 -0.0106405 1.60001 0.000610352Z" fill-rule="nonzero" transform="matrix(1 0 0 1 275.6 262.729)" fill="rgb(0, 0, 0)" opacity="0.1"/>
		<path d="M1.57999 8.01001L20.24 8.01001L20.24 4.88C20.2427 3.53358 20.7201 2.38433 21.6722 1.43225C22.6243 0.480174 23.7736 0.00275675 25.12 0L41.79 0C43.1364 0.00273641 44.2857 0.480148 45.2378 1.43224C46.1898 2.3843 46.6672 3.53356 46.67 4.88L46.67 8.01001L65.32 8.01001C65.7453 8.01001 66.1082 8.16035 66.4089 8.46104C66.7097 8.76175 66.86 9.12474 66.86 9.55L66.86 24.96C66.858 25.3266 66.7406 25.6516 66.5079 25.935C66.2752 26.2183 65.9793 26.3967 65.62 26.47L33.71 32.74C33.6105 32.7551 33.5105 32.7626 33.41 32.7626C33.3094 32.7626 33.2094 32.7551 33.11 32.74L1.23999 26.47C0.880758 26.3967 0.584798 26.2184 0.352112 25.935C0.119425 25.6516 0.00205485 25.3266 0 24.96L0 9.55C-0.000142415 9.11682 0.154887 8.74904 0.465088 8.44669C0.775289 8.14433 1.14692 7.99877 1.57999 8.01001ZM42.96 4.88C42.9573 4.5572 42.8424 4.28118 42.6151 4.05196C42.3878 3.82273 42.1128 3.70541 41.79 3.70001L25.12 3.70001C24.7964 3.70538 24.5202 3.82249 24.2914 4.05135C24.0625 4.2802 23.9454 4.55642 23.94 4.88L23.94 8.01001L42.94 8.01001L42.96 4.88Z" fill-rule="nonzero" transform="matrix(1 0 0 1 274.29 244.26)" fill="rgb(176, 190, 197)"/>
		<path d="M1.57999 8.01001L20.24 8.01001L20.24 4.88C20.2427 3.53358 20.7201 2.38433 21.6722 1.43225C22.6243 0.480174 23.7736 0.00275675 25.12 0L41.79 0C43.1364 0.00273641 44.2857 0.480148 45.2378 1.43224C46.1898 2.3843 46.6672 3.53356 46.67 4.88L46.67 8.01001L65.32 8.01001C65.7453 8.01001 66.1082 8.16035 66.4089 8.46104C66.7097 8.76175 66.86 9.12474 66.86 9.55L66.86 24.96C66.858 25.3266 66.7406 25.6516 66.5079 25.935C66.2752 26.2183 65.9793 26.3967 65.62 26.47L33.71 32.74C33.6105 32.7551 33.5105 32.7626 33.41 32.7626C33.3094 32.7626 33.2094 32.7551 33.11 32.74L1.23999 26.47C0.880758 26.3967 0.584798 26.2184 0.352112 25.935C0.119425 25.6516 0.00205485 25.3266 0 24.96L0 9.55C-0.000142415 9.11682 0.154887 8.74904 0.465088 8.44669C0.775289 8.14433 1.14692 7.99877 1.57999 8.01001ZM42.96 4.88C42.9573 4.5572 42.8424 4.28118 42.6151 4.05196C42.3878 3.82273 42.1128 3.70541 41.79 3.70001L25.12 3.70001C24.7964 3.70538 24.5202 3.82249 24.2914 4.05135C24.0625 4.2802 23.9454 4.55642 23.94 4.88L23.94 8.01001L42.94 8.01001L42.96 4.88Z" fill-rule="nonzero" transform="matrix(1 0 0 1 274.29 244.26)" fill="rgb(155, 140, 140)" opacity="0.6"/>
		<path d="M1.48 0C0.662619 0 0 0.662619 0 1.48L0 5.64C0 6.45738 0.662619 7.12 1.48 7.12L8.06 7.12C8.87738 7.12 9.54 6.45738 9.54 5.64L9.54 1.48C9.54 0.662619 8.87738 0 8.06 0L1.48 0Z" fill-rule="nonzero" transform="matrix(-1 0 0 -1 312.51 279.91)" fill="rgb(176, 190, 197)"/>
		<path d="M1.48 0C0.662619 0 0 0.662619 0 1.48L0 5.64C0 6.45738 0.662619 7.12 1.48 7.12L8.06 7.12C8.87738 7.12 9.54 6.45738 9.54 5.64L9.54 1.48C9.54 0.662619 8.87738 0 8.06 0L1.48 0Z" fill-rule="nonzero" transform="matrix(-1 0 0 -1 312.51 279.91)" fill="rgb(155, 140, 140)" opacity="0.3"/>
		<path d="M1.56 0C0.698436 0 0 0.698436 0 1.56L0 27.04C0 27.9016 0.698435 28.6 1.56 28.6L62.65 28.6C63.5116 28.6 64.21 27.9016 64.21 27.04L64.21 1.56C64.21 0.698436 63.5116 0 62.65 0L1.56 0Z" fill-rule="nonzero" transform="matrix(-1 0 0 -1 339.84 107.36)" fill="rgb(176, 190, 197)"/>
		<path d="M1.56 0C0.698436 0 0 0.698436 0 1.56L0 27.04C0 27.9016 0.698435 28.6 1.56 28.6L62.65 28.6C63.5116 28.6 64.21 27.9016 64.21 27.04L64.21 1.56C64.21 0.698436 63.5116 0 62.65 0L1.56 0Z" fill-rule="nonzero" transform="matrix(-1 0 0 -1 339.84 107.36)" fill="rgb(155, 140, 140)" opacity="0.6"/>
		<path d="M1.56 0L62.64 0C63.0708 0 63.4385 0.152301 63.7431 0.456902C64.0477 0.761513 64.2 1.12921 64.2 1.56L64.2 9.73L32.36 15.99C32.2627 16.0099 32.1643 16.0199 32.065 16.0199C31.9657 16.0199 31.8673 16.0099 31.77 15.99L0 9.73L0 1.56001C0 1.12922 0.152303 0.761523 0.456909 0.456917C0.761515 0.152306 1.12921 0 1.56 0Z" fill-rule="nonzero" transform="matrix(1 0 0 1 275.64 78.77)" fill="rgb(0, 0, 0)" opacity="0.1"/>
		<path d="M1.57999 8.01011L20.24 8.01011L20.24 4.88011C20.2427 3.53367 20.7201 2.38442 21.6722 1.43234C22.6243 0.480268 23.7736 0.00285594 25.12 0.000106812L41.79 0.000106812C43.1442 -0.00819906 44.3021 0.464494 45.2636 1.41819C46.2251 2.37188 46.7072 3.52585 46.71 4.88011L46.71 8.01011L65.36 8.01011C65.7852 8.0101 66.1482 8.16045 66.4489 8.46115C66.7496 8.76186 66.9 9.12484 66.9 9.55011L66.9 24.9601C66.8999 25.3274 66.7832 25.653 66.5501 25.9369C66.317 26.2208 66.0203 26.3985 65.66 26.4701L33.71 32.7001C33.611 32.7202 33.511 32.7302 33.41 32.7302C33.309 32.7302 33.209 32.7202 33.11 32.7001L1.23999 26.4301C0.879679 26.3585 0.582967 26.1808 0.349854 25.8969C0.11674 25.613 0.00012207 25.2874 0 24.9201L0 9.55011C-0.000142415 9.11691 0.154887 8.74914 0.465088 8.44678C0.775289 8.14442 1.14692 7.99886 1.57999 8.01011ZM42.96 4.88011C42.96 4.5562 42.846 4.27924 42.6179 4.04924C42.3898 3.81923 42.1138 3.70285 41.79 3.70011L25.12 3.70011C24.7972 3.70277 24.5212 3.81775 24.292 4.04503C24.0627 4.27232 23.9454 4.54734 23.94 4.87011L23.94 8.0001L42.94 8.0001L42.96 4.88011Z" fill-rule="nonzero" transform="matrix(1 0 0 1 274.29 60.2999)" fill="rgb(176, 190, 197)"/>
		<path d="M1.57999 8.01011L20.24 8.01011L20.24 4.88011C20.2427 3.53367 20.7201 2.38442 21.6722 1.43234C22.6243 0.480268 23.7736 0.00285594 25.12 0.000106812L41.79 0.000106812C43.1442 -0.00819906 44.3021 0.464494 45.2636 1.41819C46.2251 2.37188 46.7072 3.52585 46.71 4.88011L46.71 8.01011L65.36 8.01011C65.7852 8.0101 66.1482 8.16045 66.4489 8.46115C66.7496 8.76186 66.9 9.12484 66.9 9.55011L66.9 24.9601C66.8999 25.3274 66.7832 25.653 66.5501 25.9369C66.317 26.2208 66.0203 26.3985 65.66 26.4701L33.71 32.7001C33.611 32.7202 33.511 32.7302 33.41 32.7302C33.309 32.7302 33.209 32.7202 33.11 32.7001L1.23999 26.4301C0.879679 26.3585 0.582967 26.1808 0.349854 25.8969C0.11674 25.613 0.00012207 25.2874 0 24.9201L0 9.55011C-0.000142415 9.11691 0.154887 8.74914 0.465088 8.44678C0.775289 8.14442 1.14692 7.99886 1.57999 8.01011ZM42.96 4.88011C42.96 4.5562 42.846 4.27924 42.6179 4.04924C42.3898 3.81923 42.1138 3.70285 41.79 3.70011L25.12 3.70011C24.7972 3.70277 24.5212 3.81775 24.292 4.04503C24.0627 4.27232 23.9454 4.54734 23.94 4.87011L23.94 8.0001L42.94 8.0001L42.96 4.88011Z" fill-rule="nonzero" transform="matrix(1 0 0 1 274.29 60.2999)" fill="rgb(155, 140, 140)" opacity="0.6"/>
		<path d="M1.48 0C0.662619 0 0 0.662619 0 1.48L0 5.64C0 6.45738 0.662619 7.12 1.48 7.12L8.06 7.12C8.87738 7.12 9.54 6.45738 9.54 5.64L9.54 1.48C9.54 0.662619 8.87738 0 8.06 0L1.48 0Z" fill-rule="nonzero" transform="matrix(-1 0 0 -1 312.51 95.95)" fill="rgb(176, 190, 197)"/>
		<path d="M1.48 0C0.662619 0 0 0.662619 0 1.48L0 5.64C0 6.45738 0.662619 7.12 1.48 7.12L8.06 7.12C8.87738 7.12 9.54 6.45738 9.54 5.64L9.54 1.48C9.54 0.662619 8.87738 0 8.06 0L1.48 0Z" fill-rule="nonzero" transform="matrix(-1 0 0 -1 312.51 95.95)" fill="rgb(155, 140, 140)" opacity="0.3"/>
		<path d="M0 28.6L53.1 28.6C53.5316 28.5973 53.8995 28.4428 54.2037 28.1366C54.5079 27.8305 54.66 27.4616 54.66 27.03L54.66 1.56C54.6592 1.45498 54.6479 1.3511 54.626 1.24838C54.6041 1.14567 54.5721 1.04621 54.53 0.949997C54.5117 0.904139 54.4908 0.859477 54.4674 0.816009C54.444 0.772532 54.4182 0.73053 54.39 0.690002C54.3622 0.647217 54.3315 0.606567 54.298 0.568054C54.2645 0.529531 54.2285 0.493515 54.19 0.460007C54.0449 0.312597 53.877 0.199005 53.6863 0.119232C53.4955 0.0394491 53.2967 -0.000295003 53.09 0L2.81 0C3.01919 1.74502 3.158 3.4956 3.22644 5.25177C3.29488 7.00793 3.29273 8.76401 3.22 10.52C3.22 11.09 3.22 11.66 3.13 12.22C3.07001 13.27 2.98001 14.33 2.86002 15.38C2.60753 17.6259 2.24235 19.8534 1.76447 22.0624C1.28656 24.2713 0.698405 26.4506 0 28.6Z" fill-rule="nonzero" transform="matrix(1 0 0 1 285.19 170.75)" fill="rgb(176, 190, 197)"/>
		<path d="M0 28.6L53.1 28.6C53.5316 28.5973 53.8995 28.4428 54.2037 28.1366C54.5079 27.8305 54.66 27.4616 54.66 27.03L54.66 1.56C54.6592 1.45498 54.6479 1.3511 54.626 1.24838C54.6041 1.14567 54.5721 1.04621 54.53 0.949997C54.5117 0.904139 54.4908 0.859477 54.4674 0.816009C54.444 0.772532 54.4182 0.73053 54.39 0.690002C54.3622 0.647217 54.3315 0.606567 54.298 0.568054C54.2645 0.529531 54.2285 0.493515 54.19 0.460007C54.0449 0.312597 53.877 0.199005 53.6863 0.119232C53.4955 0.0394491 53.2967 -0.000295003 53.09 0L2.81 0C3.01919 1.74502 3.158 3.4956 3.22644 5.25177C3.29488 7.00793 3.29273 8.76401 3.22 10.52C3.22 11.09 3.22 11.66 3.13 12.22C3.07001 13.27 2.98001 14.33 2.86002 15.38C2.60753 17.6259 2.24235 19.8534 1.76447 22.0624C1.28656 24.2713 0.698405 26.4506 0 28.6Z" fill-rule="nonzero" transform="matrix(1 0 0 1 285.19 170.75)" fill="rgb(155, 140, 140)" opacity="0.6"/>
		<path d="M0 0C0.209188 1.74502 0.348002 3.49561 0.416443 5.25177C0.484884 7.00793 0.482737 8.76401 0.410004 10.52C0.410004 11.09 0.410004 11.66 0.320007 12.22L15 15.1L19.48 15.98C19.5768 16.005 19.6751 16.0175 19.775 16.0175C19.8749 16.0175 19.9732 16.005 20.07 15.98L24.54 15.11L51.87 9.73001L51.87 1.55C51.8684 1.44719 51.8575 1.34537 51.8373 1.24454C51.8172 1.1437 51.7881 1.04552 51.75 0.949997C51.7317 0.904139 51.7108 0.859477 51.6874 0.816009C51.664 0.772532 51.6382 0.73053 51.61 0.690002C51.5822 0.647217 51.5515 0.606567 51.518 0.568054C51.4845 0.529531 51.4485 0.493515 51.41 0.460007C51.265 0.312597 51.0971 0.199005 50.9063 0.119232C50.7155 0.039449 50.5167 -0.000295003 50.31 0L0 0Z" fill-rule="nonzero" transform="matrix(1 0 0 1 288 170.75)" fill="rgb(0, 0, 0)" opacity="0.1"/>
		<path d="M0.0400085 8.01001L8.67001 8.01001L8.67001 4.88C8.67276 3.53358 9.15017 2.38433 10.1022 1.43225C11.0543 0.480174 12.2036 0.00275675 13.55 0L30.21 0C31.5584 0 32.7098 0.476242 33.6643 1.42873C34.6187 2.3812 35.0973 3.53163 35.1 4.88L35.1 8.01001L53.75 8.01001C54.1753 8.01001 54.5383 8.16036 54.839 8.46106C55.1397 8.76177 55.29 9.12475 55.29 9.55L55.29 24.95C55.2903 25.3185 55.174 25.6455 54.9411 25.9311C54.7081 26.2166 54.4111 26.3963 54.05 26.47L53.98 26.47L26.6501 31.86L22.14 32.72C22.0427 32.74 21.9443 32.7499 21.845 32.7499C21.7457 32.7499 21.6473 32.74 21.55 32.72L17.07 31.84L2.5 28.97C2.64183 25.4259 2.50309 21.8928 2.0838 18.3708C1.66449 14.8487 0.969889 11.3818 0 7.97002L0.0400085 8.01001ZM31.39 4.88C31.3846 4.55724 31.2673 4.28222 31.0381 4.05493C30.8088 3.82765 30.5328 3.71267 30.21 3.71001L13.55 3.71001C13.2281 3.71272 12.9532 3.82791 12.7256 4.05557C12.4979 4.28324 12.3827 4.55805 12.38 4.88L12.38 8.01001L31.38 8.01001L31.39 4.88Z" fill-rule="nonzero" transform="matrix(1 0 0 1 285.86 152.28)" fill="rgb(176, 190, 197)"/>
		<path d="M0.0400085 8.01001L8.67001 8.01001L8.67001 4.88C8.67276 3.53358 9.15017 2.38433 10.1022 1.43225C11.0543 0.480174 12.2036 0.00275675 13.55 0L30.21 0C31.5584 0 32.7098 0.476242 33.6643 1.42873C34.6187 2.3812 35.0973 3.53163 35.1 4.88L35.1 8.01001L53.75 8.01001C54.1753 8.01001 54.5383 8.16036 54.839 8.46106C55.1397 8.76177 55.29 9.12475 55.29 9.55L55.29 24.95C55.2903 25.3185 55.174 25.6455 54.9411 25.9311C54.7081 26.2166 54.4111 26.3963 54.05 26.47L53.98 26.47L26.6501 31.86L22.14 32.72C22.0427 32.74 21.9443 32.7499 21.845 32.7499C21.7457 32.7499 21.6473 32.74 21.55 32.72L17.07 31.84L2.5 28.97C2.64183 25.4259 2.50309 21.8928 2.0838 18.3708C1.66449 14.8487 0.969889 11.3818 0 7.97002L0.0400085 8.01001ZM31.39 4.88C31.3846 4.55724 31.2673 4.28222 31.0381 4.05493C30.8088 3.82765 30.5328 3.71267 30.21 3.71001L13.55 3.71001C13.2281 3.71272 12.9532 3.82791 12.7256 4.05557C12.4979 4.28324 12.3827 4.55805 12.38 4.88L12.38 8.01001L31.38 8.01001L31.39 4.88Z" fill-rule="nonzero" transform="matrix(1 0 0 1 285.86 152.28)" fill="rgb(155, 140, 140)" opacity="0.6"/>
		<path d="M1.48 0C0.662619 0 0 0.662619 0 1.48L0 5.64C0 6.45738 0.662619 7.12 1.48 7.12L8.06 7.12C8.87738 7.12 9.54 6.45738 9.54 5.64L9.54 1.48C9.54 0.662619 8.87738 0 8.06 0L1.48 0Z" fill-rule="nonzero" transform="matrix(-1 0 0 -1 312.51 187.94)" fill="rgb(176, 190, 197)"/>
		<path d="M1.48 0C0.662619 0 0 0.662619 0 1.48L0 5.64C0 6.45738 0.662619 7.12 1.48 7.12L8.06 7.12C8.87738 7.12 9.54 6.45738 9.54 5.64L9.54 1.48C9.54 0.662619 8.87738 0 8.06 0L1.48 0Z" fill-rule="nonzero" transform="matrix(-1 0 0 -1 312.51 187.94)" fill="rgb(155, 140, 140)" opacity="0.3"/>
		<path d="M2.24 0C1.00288 0 0 1.00288 0 2.24L0 38.85C0 40.0871 1.00288 41.09 2.24 41.09L90.02 41.09C91.2571 41.09 92.26 40.0871 92.26 38.85L92.26 2.24C92.26 1.00288 91.2571 0 90.02 0L2.24 0Z" fill-rule="nonzero" transform="matrix(1 0 0 1 169.68 164.54)" fill="rgb(176, 190, 197)"/>
		<path d="M30.8 19.85L6.85001 19.85C4.95956 19.8473 3.34597 19.1775 2.00923 17.8408C0.67249 16.504 0.00274658 14.8904 0 13L0 6.85001C0.00273641 4.95957 0.67248 3.34599 2.00923 2.00925C3.34597 0.672495 4.95956 0.00274658 6.85001 0L30.8 0C32.6916 0 34.3061 0.668772 35.6437 2.00632C36.9812 3.34386 37.65 4.95842 37.65 6.85001L37.65 12.97C37.6583 14.8674 36.9931 16.4884 35.6544 17.8331C34.3156 19.1777 32.6975 19.85 30.8 19.85ZM6.85001 5.03C6.34884 5.03534 5.92057 5.21473 5.5652 5.56816C5.20983 5.92159 5.0281 6.34887 5.02 6.85001L5.02 12.97C5.01999 13.4809 5.20061 13.9169 5.56184 14.2781C5.92308 14.6394 6.35914 14.82 6.87001 14.82L30.82 14.82C31.3309 14.82 31.7669 14.6394 32.1281 14.2781C32.4894 13.9169 32.67 13.4809 32.67 12.97L32.67 6.85001C32.67 6.33913 32.4894 5.90308 32.1281 5.54184C31.7669 5.18061 31.3309 5 30.82 5L6.85001 5.03Z" fill-rule="nonzero" transform="matrix(1 0 0 1 196.98 138.15)" fill="rgb(176, 190, 197)"/>
		<path d="M90.01 3.05176e-05L2.25 3.05176e-05C1.6295 -0.00274658 1.09937 0.214762 0.659622 0.652557C0.219874 1.09035 0 1.61951 0 2.24004L0 13.99L45.7 22.99C45.84 23.0205 45.9817 23.0357 46.125 23.0357C46.2683 23.0357 46.41 23.0205 46.55 22.99L92.26 13.99L92.26 2.24004C92.26 1.61951 92.0401 1.09035 91.6004 0.652542C91.1606 0.214757 90.6305 -0.00274658 90.01 3.05176e-05Z" fill-rule="nonzero" transform="matrix(1 0 0 1 169.68 164.54)" fill="rgb(0, 0, 0)" opacity="0.2"/>
		<path d="M94.23 26.48L48.44 35.48C48.2977 35.505 48.1544 35.5176 48.01 35.5176C47.8656 35.5176 47.7222 35.505 47.58 35.48L1.78999 26.48C1.27136 26.3776 0.843842 26.1225 0.507446 25.7147C0.171051 25.3069 0.00190226 24.8387 0 24.31L0 2.21001C1.01725e-05 1.59973 0.21578 1.07882 0.647308 0.647293C1.07884 0.215764 1.59974 0 2.21001 0L93.83 0C94.4403 0 94.9612 0.215764 95.3927 0.647293C95.8242 1.07882 96.04 1.59973 96.04 2.21001L96.04 24.35C96.0297 24.8749 95.8545 25.3374 95.5145 25.7375C95.1745 26.1376 94.7464 26.3851 94.23 26.48Z" fill-rule="nonzero" transform="matrix(1 0 0 1 167.77 149.52)" fill="rgb(176, 190, 197)"/>
		<path d="M2.12 0C0.949156 0 0 0.949156 0 2.12L0 8.11C0 9.28084 0.949156 10.23 2.12 10.23L11.59 10.23C12.7608 10.23 13.71 9.28084 13.71 8.11L13.71 2.12C13.71 0.949156 12.7608 0 11.59 0L2.12 0Z" fill-rule="nonzero" transform="matrix(1 0 0 1 208.96 179.01)" fill="rgb(176, 190, 197)"/>
		<path d="M2.12 0C0.949156 0 0 0.949156 0 2.12L0 8.11C0 9.28084 0.949156 10.23 2.12 10.23L11.59 10.23C12.7608 10.23 13.71 9.28084 13.71 8.11L13.71 2.12C13.71 0.949156 12.7608 0 11.59 0L2.12 0Z" fill-rule="nonzero" transform="matrix(1 0 0 1 208.96 179.01)" fill="rgb(0, 0, 0)" opacity="0.4"/>
		<path d="M10.1499 0C11.2999 2.37 12.1499 4.61 13.1499 6.95C14.1499 9.28999 14.88 11.62 15.66 14.01C16.4506 16.4329 17.1372 18.8849 17.7199 21.366C18.3027 23.8471 18.7793 26.3485 19.1499 28.87C19.2499 29.5 19.2999 30.18 19.3699 30.87L19.4699 31.87L19.4699 32.39L19.4699 33.04C19.4868 33.7982 19.4626 34.555 19.3974 35.3106C19.3322 36.0661 19.2264 36.8159 19.0799 37.56C18.8321 38.8532 18.532 40.1342 18.1797 41.403C17.8275 42.6717 17.4242 43.9241 16.9699 45.16C16.1161 47.5095 15.1582 49.8157 14.096 52.0787C13.0338 54.3416 11.8718 56.5521 10.61 58.71L5.52997 56.56C6.65998 52 7.79996 47.35 8.65998 42.86C8.87026 41.7844 9.04965 40.7036 9.19812 39.6178C9.34656 38.5319 9.46385 37.4426 9.54999 36.35C9.57953 35.9033 9.5893 35.4562 9.57929 35.0087C9.56924 34.5612 9.53947 34.1149 9.49 33.67L9.38001 33.04L9.24 32.24C9.13001 31.71 9.06 31.18 8.93 30.64C8.43158 28.433 7.86036 26.2449 7.21631 24.0758C6.57227 21.9068 5.85683 19.7615 5.07001 17.64C4.31 15.47 3.47 13.31 2.63001 11.14C1.79001 8.97002 0.860016 6.79001 0 4.79001L10.1499 0Z" fill-rule="nonzero" transform="matrix(1 0 0 1 370.75 187.21)" fill="rgb(127, 62, 59)"/>
		<path d="M3.89999 0L0 3.8L8.51001 7.8C8.51001 7.8 10.57 4.2 9.15002 0.940002L3.89999 0Z" fill-rule="nonzero" transform="matrix(1 0 0 1 372.6 242.44)" fill="rgb(127, 62, 59)"/>
		<path d="M0 5.67L7.18002 8.61L11.65 3.95999L3.14001 0L0 5.67Z" fill-rule="nonzero" transform="matrix(1 0 0 1 369.46 246.24)" fill="rgb(127, 62, 59)"/>
		<path d="M80.0686 143.607C99.8253 141.395 115.907 132.521 128.313 116.988C140.72 101.454 145.818 83.8084 143.609 64.0514C141.399 44.2944 132.528 28.2115 116.996 15.8026C101.464 3.39381 83.819 -1.70711 64.0617 0.499886C44.3044 2.70687 28.2202 11.5755 15.8091 27.1057C3.39797 42.6359 -1.70552 60.2798 0.498596 80.0374C2.70361 99.8032 11.5753 115.893 27.1138 128.307C42.6522 140.721 60.3038 145.821 80.0686 143.607Z" fill-rule="nonzero" transform="matrix(1 0 0 1 143.741 104.203)" fill="rgb(176, 190, 197)" opacity="0.2"/>
		<path d="M0 11.54L109.5 99C109.97 98 110.41 97 110.84 96C112.212 92.7353 113.334 89.3868 114.205 85.9544C115.077 82.5219 115.688 79.0438 116.04 75.52L21.46 0C17.5791 1.29425 13.8371 2.91014 10.234 4.84769C6.63094 6.78523 3.21959 9.016 0 11.54Z" fill-rule="nonzero" transform="matrix(1 0 0 1 171.42 108)" fill="rgb(155, 140, 140)" opacity="0.1"/>
		<path d="M0 28.87L102.94 111.12C107.831 108.569 112.368 105.497 116.553 101.904C120.737 98.3103 124.46 94.289 127.72 89.84L15.3 0C11.6775 4.16185 8.57439 8.68039 5.99069 13.5556C3.40699 18.4309 1.4101 23.5357 0 28.87Z" fill-rule="nonzero" transform="matrix(1 0 0 1 146.16 129)" fill="rgb(155, 140, 140)" opacity="0.1"/>
		<path d="M261.143 164.098C261.078 163.188 260.898 162.301 260.605 161.437C260.312 160.573 259.915 159.76 259.413 158.998C259.049 158.437 258.617 157.936 258.116 157.493C257.615 157.05 257.064 156.681 256.463 156.388L249.633 153.038C245.093 150.788 240.523 148.598 235.953 146.408C231.383 144.218 226.783 142.068 222.203 139.898C217.623 137.728 213.003 135.618 208.373 133.548C199.133 129.361 189.833 125.288 180.473 121.328C175.793 119.328 171.103 117.408 166.373 115.528C164.941 114.964 163.894 113.986 163.233 112.595C162.572 111.204 162.476 109.775 162.943 108.308C172.054 79.5849 167.024 53.5984 147.855 30.3486C128.686 7.09875 104.135 -2.79244 74.2019 0.675034C44.2689 4.14251 22.6293 19.3845 9.28305 46.4009C-4.06316 73.4174 -3.01852 99.8654 12.417 125.745C27.8524 151.625 50.6268 165.112 80.7401 166.208C110.853 167.304 134.548 155.507 151.823 130.818C152.705 129.553 153.9 128.759 155.409 128.437C156.917 128.116 158.332 128.353 159.653 129.148C164.027 131.748 168.42 134.305 172.833 136.818C181.653 141.845 190.54 146.745 199.493 151.518C203.963 153.938 208.493 156.268 212.943 158.638C217.393 161.008 221.943 163.318 226.473 165.638C231.003 167.958 235.473 170.228 240.063 172.468L246.873 175.848C247.472 176.149 248.099 176.364 248.756 176.493C249.414 176.622 250.076 176.66 250.743 176.608C251.652 176.544 252.538 176.365 253.4 176.072C254.263 175.779 255.074 175.381 255.833 174.878C257.682 173.742 259.086 172.201 260.045 170.255C261.004 168.308 261.37 166.256 261.143 164.098ZM54.7734 141.978C38.5427 133.969 27.5208 121.394 21.7077 104.254C15.8947 87.1136 16.9933 70.4283 25.0034 54.1981C33.0136 37.9678 45.5891 26.9468 62.7298 21.1349C79.8705 15.3231 96.5557 16.4228 112.785 24.434C129.015 32.4453 140.035 45.0215 145.846 62.1627C151.657 79.3038 150.556 95.9889 142.543 112.218C134.535 128.446 121.961 139.466 104.822 145.277C87.6838 151.088 71.0009 149.988 54.7734 141.978Z" fill-rule="nonzero" transform="matrix(1 0 0 1 132.027 93.022)" fill="rgb(176, 190, 197)"/>
		<path d="M1.40002 1.08C1.40002 1.67 1.09003 2.15001 0.700012 2.15001C0.309998 2.15001 0 1.67001 0 1.08C0 0.48999 0.309998 0 0.700012 0C1.09003 0 1.40002 0.479996 1.40002 1.08Z" fill-rule="nonzero" transform="matrix(1 0 0 1 341.79 155.22)" fill="rgb(38, 50, 56)"/>
		<path d="M2.82001 0C2.46865 0.905741 2.05684 1.78312 1.58459 2.63212C1.11239 3.48113 0.584188 4.29376 0 5.07C0.409424 5.36289 0.861532 5.55567 1.35632 5.64834C1.85111 5.74099 2.34234 5.72488 2.82999 5.6L2.82001 0Z" fill-rule="nonzero" transform="matrix(1 0 0 1 340.11 157.37)" fill="rgb(99, 15, 15)"/>
		<path d="M3.1894 1.32869C3.2638 1.3266 3.33072 1.30315 3.39017 1.25835C3.44962 1.21355 3.49062 1.15568 3.51316 1.08474C3.53568 1.01377 3.53558 0.942849 3.51285 0.871966C3.49013 0.801074 3.44898 0.743314 3.38941 0.698687C2.94131 0.362759 2.44131 0.147192 1.88941 0.0519869C1.33751 -0.0432283 0.794171 -0.00765994 0.2594 0.158692C0.159404 0.185934 0.0859885 0.245784 0.0391541 0.338243C-0.00768027 0.430711 -0.0124919 0.525311 0.0247193 0.622042C0.0619305 0.718773 0.128886 0.785759 0.225586 0.823001C0.322307 0.860253 0.416912 0.855482 0.5094 0.808688C0.934999 0.68207 1.36624 0.658399 1.80313 0.737673C2.24002 0.816948 2.63545 0.990619 2.98942 1.25869C3.01757 1.28174 3.04884 1.29928 3.08323 1.31131C3.11757 1.32334 3.15296 1.32913 3.1894 1.32869Z" fill-rule="nonzero" transform="matrix(1 0 0 1 342.101 151.671)" fill="rgb(38, 50, 56)"/>
		<path d="M16.5521 0C15.4921 5.38 14.4421 15.23 18.2021 18.81C18.2021 18.81 16.7321 24.26 6.75211 24.26C-4.2479 24.26 1.50211 18.81 1.50211 18.81C7.50211 17.38 7.34211 12.93 6.29212 8.81L16.5521 0Z" fill-rule="nonzero" transform="matrix(1 0 0 1 346.868 160.76)" fill="rgb(127, 62, 59)"/>
		<path d="M19.4116 0.387252C20.2416 0.657256 19.1616 5.59725 19.1616 5.59725C19.1616 5.59725 17.7916 9.04725 0.771576 7.84725C-0.538422 7.74725 -0.0384216 3.00726 1.21158 2.31726C5.24158 0.117249 16.7316 -0.492736 19.4116 0.387252Z" fill-rule="nonzero" transform="matrix(1 0 0 1 347.588 175.813)" fill="rgb(38, 50, 56)"/>
		<path d="M0.76993 2.66294C1.68995 2.57294 3.02995 0.882935 3.40995 0.26294C3.42715 0.235413 3.43575 0.205424 3.43577 0.172974C3.43575 0.140503 3.42715 0.110494 3.40995 0.0829468C3.39327 0.0526327 3.36926 0.0301107 3.33793 0.0153809C3.30662 0.000630697 3.27396 -0.00350952 3.23994 0.00296021C3.13993 0.00296021 0.719943 0.462952 0.129944 1.40295C0.0669761 1.50267 0.0267843 1.61083 0.00936893 1.72745C-0.00802615 1.84407 -0.00116985 1.95924 0.0299378 2.07297C0.159943 2.51297 0.409944 2.63297 0.609926 2.66297L0.76993 2.66294ZM2.87992 0.432923C2.22993 1.33292 1.15992 2.38294 0.649904 2.31293C0.599916 2.31293 0.449892 2.31293 0.359895 1.97293C0.340079 1.90673 0.33543 1.83947 0.345948 1.77115C0.356467 1.70285 0.381115 1.64011 0.419893 1.58292C0.764539 1.27463 1.14632 1.02257 1.56522 0.826752C1.98411 0.630931 2.42234 0.499654 2.87992 0.432923Z" fill-rule="nonzero" transform="matrix(1 0 0 1 400.8 380.147)" fill="rgb(176, 190, 197)"/>
		<path d="M3.03866 1.72626C3.1281 1.71867 3.21705 1.70737 3.30554 1.69236C3.39404 1.67732 3.48174 1.65863 3.56866 1.63627C3.59867 1.6266 3.62436 1.61019 3.64574 1.58704C3.66711 1.56387 3.68141 1.53694 3.68865 1.50626C3.69457 1.4746 3.69217 1.4436 3.68145 1.41324C3.67075 1.38285 3.65315 1.35718 3.62865 1.33625C3.56866 1.27625 1.94867 -0.10376 0.848662 0.00625612C0.714812 0.0149842 0.588632 0.0507204 0.470122 0.113465C0.351613 0.176209 0.251129 0.260468 0.16867 0.366243C0.0714212 0.459932 0.0161743 0.573966 0.00292968 0.708346C-0.0103353 0.842725 0.0215759 0.965355 0.0986631 1.07624C0.458678 1.64628 2.03866 1.82627 3.03866 1.72626ZM3.11865 1.37626C2.11865 1.49625 0.65866 1.29627 0.378661 0.886264C0.378661 0.886264 0.298675 0.756258 0.438659 0.576265C0.495462 0.509615 0.562845 0.456371 0.640807 0.416536C0.718769 0.376659 0.80139 0.353232 0.88867 0.346254C1.30318 0.403566 1.70037 0.51995 2.08026 0.695406C2.46014 0.870883 2.80625 1.09781 3.11865 1.37626Z" fill-rule="nonzero" transform="matrix(1 0 0 1 400.541 378.854)" fill="rgb(176, 190, 197)"/>
		<path d="M2.26031 1.76853C2.63913 1.76715 3.01721 1.74975 3.39452 1.71635C3.77188 1.68296 4.14715 1.63368 4.52032 1.56852C4.55435 1.55916 4.58385 1.54199 4.60882 1.51701C4.6338 1.49204 4.65097 1.46254 4.66033 1.4285C4.6666 1.39188 4.66142 1.35695 4.6448 1.32371C4.62817 1.2905 4.60335 1.26544 4.57033 1.24851C4.46035 1.1785 1.90033 -0.281495 0.670348 0.0484927C0.555195 0.0778304 0.450001 0.128022 0.354766 0.199067C0.25949 0.270072 0.181355 0.356549 0.120361 0.458498C0.0401203 0.572472 0 0.699151 0 0.838535C0 0.9779 0.0401203 1.10456 0.120361 1.21851C0.440307 1.65855 1.32031 1.76853 2.26031 1.76853ZM3.96032 1.30854C2.59033 1.49854 0.730315 1.48853 0.390319 1.01853C0.340331 0.958531 0.300323 0.848515 0.390319 0.628513C0.427327 0.566134 0.475453 0.514041 0.534697 0.472231C0.593922 0.430422 0.659127 0.402519 0.730315 0.388521C1.52029 0.178529 3.0603 0.848545 3.96032 1.30854Z" fill-rule="nonzero" transform="matrix(1 0 0 1 330.56 407.341)" fill="rgb(176, 190, 197)"/>
		<path d="M2.61685 3.29845C2.6348 3.30358 2.65313 3.30613 2.67184 3.30611C2.69052 3.30613 2.70885 3.30358 2.72684 3.29845C2.75015 3.27855 2.76794 3.25457 2.78021 3.22649C2.79252 3.19841 2.79806 3.16907 2.79684 3.13845C2.79684 3.05846 2.58685 1.07846 1.65683 0.308471C1.51759 0.192423 1.36114 0.108357 1.1875 0.0562742C1.01385 0.00417072 0.836965 -0.0117594 0.65683 0.00848386C0.176819 0.0584715 0.0468445 0.298491 0.00683594 0.498472C-0.123169 1.32846 1.63684 2.91848 2.51684 3.31847L2.61685 3.29845ZM0.826843 0.298461C0.938497 0.301655 1.04658 0.322956 1.15109 0.362364C1.25563 0.401773 1.35087 0.457141 1.43683 0.528471C1.7144 0.845629 1.93845 1.19691 2.10898 1.5823C2.27951 1.96772 2.38879 2.36977 2.43683 2.78847C1.52682 2.24847 0.336822 0.99847 0.436829 0.498472C0.436829 0.498472 0.436829 0.338469 0.776825 0.308471L0.826843 0.298461Z" fill-rule="nonzero" transform="matrix(1 0 0 1 332.383 405.612)" fill="rgb(176, 190, 197)"/>
		<path d="M8.07999 17.02L0.73999 17.02L0 0L7.35001 0L8.07999 17.02Z" fill-rule="nonzero" transform="matrix(1 0 0 1 335.04 391.72)" fill="rgb(127, 62, 59)"/>
		<path d="M20.31 10.12L14.58 14.71L0 4.59L5.73999 0L20.31 10.12Z" fill-rule="nonzero" transform="matrix(1 0 0 1 390.32 364.91)" fill="rgb(127, 62, 59)"/>
		<path d="M5.01544 5.99204L10.8754 0.182038C10.9835 0.0779318 11.1122 0.0184225 11.2616 0.00350953C11.4109 -0.0114238 11.5488 0.0214234 11.6754 0.102051L17.3054 3.72205C17.5977 3.91099 17.7593 4.1788 17.7902 4.52546C17.8212 4.8721 17.7096 5.16429 17.4554 5.40204C15.3754 7.40205 14.2654 8.26203 11.6854 10.8121C10.1054 12.392 6.23541 17.0921 4.04541 19.2621C1.85541 21.4321 -0.584595 19.5521 0.125397 18.4621C3.27539 13.6021 4.3454 9.59208 4.48538 7.15208C4.50044 6.93298 4.5536 6.72356 4.64487 6.52381C4.73613 6.32406 4.85966 6.14681 5.01544 5.99204Z" fill-rule="nonzero" transform="matrix(1 0 0 1 398.835 373.338)" fill="rgb(38, 50, 56)"/>
		<path d="M17.7633 0L25.7633 0C25.9128 -0.000854491 26.0458 0.0456746 26.1623 0.139587C26.2787 0.233479 26.3524 0.353617 26.3833 0.499999L27.8333 7.02999C27.9114 7.36587 27.8421 7.66793 27.6255 7.93618C27.4088 8.20443 27.1281 8.33569 26.7833 8.32998C23.8833 8.32998 19.7033 8.11998 16.0633 8.11998C11.8133 8.11998 8.14325 8.34999 3.15326 8.34999C0.153259 8.34999 -0.696747 5.30001 0.563263 5.02001C6.31327 3.77001 11.0033 3.63 15.9633 0.570007C16.2308 0.392923 16.5175 0.255951 16.8234 0.159088C17.1293 0.0622253 17.4425 0.00919595 17.7633 0Z" fill-rule="nonzero" transform="matrix(1 0 0 1 318.057 407.89)" fill="rgb(38, 50, 56)"/>
		<path d="M11.5377 0.832458C17.9077 3.83246 20.5377 24.3925 20.5377 24.3925L5.88773 30.1425C4.75077 27.359 3.72243 24.536 2.80274 21.6735C1.88306 18.8109 1.07472 15.9172 0.377716 12.9925C-1.67227 3.71245 4.98774 -2.28755 11.5377 0.832458Z" fill-rule="nonzero" transform="matrix(1 0 0 1 368.012 180.938)" fill="rgb(176, 190, 197)"/>
		<path d="M11.5377 0.832458C17.9077 3.83246 20.5377 24.3925 20.5377 24.3925L5.88773 30.1425C4.75077 27.359 3.72243 24.536 2.80274 21.6735C1.88306 18.8109 1.07472 15.9172 0.377716 12.9925C-1.67227 3.71245 4.98774 -2.28755 11.5377 0.832458Z" fill-rule="nonzero" transform="matrix(1 0 0 1 368.012 180.938)" fill="rgb(155, 140, 140)" opacity="0.3"/>
		<path d="M2.01416 0.570007C1.76453 0.448781 1.50936 0.340546 1.24866 0.2453C0.987997 0.150055 0.723165 0.0682882 0.454163 0C0.161926 1.09628 0.0107218 2.21169 0.000549317 3.34621C-0.00960287 4.48073 0.121602 5.59866 0.394165 6.7C1.08814 9.62501 1.89415 12.5188 2.8122 15.3815C3.73023 18.2441 4.75755 21.0669 5.89417 23.85L10.7242 21.96C9.83417 16.59 7.10416 3.01001 2.01416 0.570007Z" fill-rule="nonzero" transform="matrix(1 0 0 1 368.046 187.23)" fill="rgb(0, 0, 0)" opacity="0.2"/>
		<path d="M3.60968 2.28018C3.60968 2.28018 -4.21033 11.1102 3.16968 65.7802L42.4697 65.7802C42.7396 59.7802 38.9497 30.3202 44.7696 1.90018C42.5965 1.48224 40.4121 1.1348 38.2165 0.857849C36.0208 0.580892 33.8186 0.375 31.6096 0.240173C28.8286 0.0800476 26.0453 -1.01725e-05 23.2596 0C20.474 -1.01725e-05 17.6907 0.0800476 14.9096 0.240173C13.0026 0.432332 11.106 0.698669 9.21982 1.03918C7.33361 1.37971 5.46356 1.79338 3.60968 2.28018Z" fill-rule="nonzero" transform="matrix(1 0 0 1 333.46 179.33)" fill="rgb(176, 190, 197)"/>
		<path d="M3.60968 2.28018C3.60968 2.28018 -4.21033 11.1102 3.16968 65.7802L42.4697 65.7802C42.7396 59.7802 38.9497 30.3202 44.7696 1.90018C42.5965 1.48224 40.4121 1.1348 38.2165 0.857849C36.0208 0.580892 33.8186 0.375 31.6096 0.240173C28.8286 0.0800476 26.0453 -1.01725e-05 23.2596 0C20.474 -1.01725e-05 17.6907 0.0800476 14.9096 0.240173C13.0026 0.432332 11.106 0.698669 9.21982 1.03918C7.33361 1.37971 5.46356 1.79338 3.60968 2.28018Z" fill-rule="nonzero" transform="matrix(1 0 0 1 333.46 179.33)" fill="rgb(155, 140, 140)" opacity="0.3"/>
		<path d="M11.5189 5.47015C9.73887 0.130157 5.45887 -1.57985 1.09885 1.59015C0.218842 6.77014 -0.401154 15.1201 0.308838 28.3602L7.97886 28.2901C7.97886 28.2901 14.1489 13.4202 11.5189 5.47015Z" fill-rule="nonzero" transform="matrix(1 0 0 1 333.481 187.86)" fill="rgb(0, 0, 0)" opacity="0.2"/>
		<path d="M38.34 1.47C38.02 4.14999 37.58 6.58 37.09 9.11C36.6 11.64 36.03 14.11 35.38 16.6C34.7383 19.1446 33.9815 21.6545 33.1097 24.1297C32.2379 26.6049 31.2546 29.035 30.16 31.42C29.59 32.65 28.93 33.86 28.23 35.07C27.87 35.68 27.51 36.29 27.1 36.89C26.8342 37.3069 26.5449 37.7069 26.2321 38.0899C25.9194 38.4729 25.5854 38.8362 25.23 39.18C24.5401 39.8198 23.7906 40.3799 22.9815 40.8603C22.1725 41.3406 21.322 41.7305 20.43 42.03C19.7057 42.2838 18.97 42.4984 18.2229 42.6739C17.4758 42.8494 16.7215 42.9847 15.96 43.08C14.601 43.2485 13.237 43.3411 11.8677 43.3578C10.4985 43.3745 9.1326 43.3153 7.76999 43.18C6.43666 43.0733 5.13666 42.9033 3.87 42.67C2.57001 42.44 1.34 42.2 0 41.85L0.649994 36.37C2.93212 36.2742 5.20295 36.0592 7.46249 35.7249C9.72204 35.3907 11.9579 34.939 14.17 34.37C14.62 34.2368 15.0629 34.0834 15.4988 33.9097C15.9347 33.736 16.3618 33.5428 16.78 33.33C17.0546 33.2041 17.3103 33.0473 17.5471 32.8596C17.7838 32.6719 17.9948 32.4587 18.18 32.22C18.1 32.29 18.83 31.08 19.2599 30.22C19.6899 29.36 20.17 28.22 20.58 27.22C21.42 25.16 22.14 22.98 22.8 20.75C23.46 18.52 24.0399 16.25 24.58 13.95C25.12 11.65 25.58 9.33 26.08 6.95C26.58 4.56999 26.9399 2.20999 27.3 0L38.34 1.47Z" fill-rule="nonzero" transform="matrix(1 0 0 1 305.22 189.67)" fill="rgb(127, 62, 59)"/>
		<path d="M24.02 5.83028C26.09 12.5403 17.69 32.5403 17.69 32.5403L0 28.0903C0.541483 24.9295 1.26629 21.8113 2.17441 18.7357C3.08253 15.6601 4.16772 12.6483 5.42999 9.70027C11.13 -2.77973 21.53 -2.25972 24.02 5.83028Z" fill-rule="nonzero" transform="matrix(1 0 0 1 322.87 181.17)" fill="rgb(176, 190, 197)"/>
		<path d="M24.02 5.83028C26.09 12.5403 17.69 32.5403 17.69 32.5403L0 28.0903C0.541483 24.9295 1.26629 21.8113 2.17441 18.7357C3.08253 15.6601 4.16772 12.6483 5.42999 9.70027C11.13 -2.77973 21.53 -2.25972 24.02 5.83028Z" fill-rule="nonzero" transform="matrix(1 0 0 1 322.87 181.17)" fill="rgb(155, 140, 140)" opacity="0.3"/>
		<path d="M8.32001 0.210007L0 0L4 8.64999C4 8.64999 7.38 9.09999 10.16 4.53L13.09 1.03999L9.72 0.36C9.48923 0.315017 9.25696 0.280004 9.02319 0.254959C8.78945 0.229914 8.55505 0.21493 8.32001 0.210007Z" fill-rule="nonzero" transform="matrix(1 0 0 1 297.8 225.86)" fill="rgb(127, 62, 59)"/>
		<path d="M0 1.61L4.77002 8.78L9.26001 8.64999L5.25 0L0 1.61Z" fill-rule="nonzero" transform="matrix(1 0 0 1 292.55 225.86)" fill="rgb(127, 62, 59)"/>
		<path d="M0 0L0.370026 8.76999L7.72 8.76999L7.34003 0L0 0Z" fill-rule="nonzero" transform="matrix(1 0 0 1 335.05 391.73)" fill="rgb(0, 0, 0)" opacity="0.2"/>
		<path d="M5.73999 0L0 4.59L7.51999 9.81L13.26 5.22L5.73999 0Z" fill-rule="nonzero" transform="matrix(1 0 0 1 390.32 364.91)" fill="rgb(0, 0, 0)" opacity="0.2"/>
		<path d="M20.8927 10.7878C20.4527 18.0678 20.5727 22.3478 16.8927 26.0878C11.3727 31.7078 2.38269 28.3878 0.642701 21.0878C-0.927308 14.5478 0.0627136 3.74783 7.18271 0.83783C10.608 -0.57903 13.8206 -0.198853 16.8206 1.97836C19.8205 4.15558 21.1779 7.09207 20.8927 10.7878Z" fill-rule="nonzero" transform="matrix(1 0 0 1 342.107 144.212)" fill="rgb(127, 62, 59)"/>
		<path d="M26.1249 9.39864C26.1249 9.39864 29.9549 10.5386 28.7549 14.9086C26.945 21.5486 22.6849 29.1886 17.1849 29.6686C10.3349 30.2786 7.24494 23.2086 6.34494 15.8986C2.24493 13.0886 -0.795075 10.4586 0.184937 7.53862C1.68494 3.03862 7.12494 -0.841385 15.7849 0.158615C24.445 1.15862 28.7549 6.75864 26.1249 9.39864Z" fill-rule="nonzero" transform="matrix(1 0 0 1 342.755 138.841)" fill="rgb(38, 50, 56)"/>
		<path d="M5.67829 3.0641C5.61178 3.96689 5.40219 4.83513 5.04953 5.66883C4.69687 6.50253 4.21979 7.25762 3.61829 7.9341C2.01828 9.6941 0.338288 8.59411 0.0582886 6.45411C-0.191712 4.5141 0.328278 1.2641 2.2883 0.294098C4.24832 -0.675904 5.80829 0.884095 5.67829 3.0641Z" fill-rule="nonzero" transform="matrix(1 0 0 1 347.592 153.176)" fill="rgb(127, 62, 59)"/>
		<path d="M0.636566 1.52588e-05C0.636566 1.52588e-05 -1.84344 49.52 2.98657 70.5C10.6366 103.72 44.2666 130.34 44.2666 130.34L55.0665 121.69C55.0665 121.69 27.3965 101.1 24.9066 73.44C22.6765 48.6 25.9766 20.07 25.9766 0L0.636566 1.52588e-05Z" fill-rule="nonzero" transform="matrix(1 0 0 1 349.933 245.11)" fill="rgb(176, 190, 197)"/>
		<path d="M0.636566 1.52588e-05C0.636566 1.52588e-05 -1.84344 49.52 2.98657 70.5C10.6366 103.72 44.2666 130.34 44.2666 130.34L55.0665 121.69C55.0665 121.69 27.3965 101.1 24.9066 73.44C22.6765 48.6 25.9766 20.07 25.9766 0L0.636566 1.52588e-05Z" fill-rule="nonzero" transform="matrix(1 0 0 1 349.933 245.11)" fill="rgb(0, 0, 0)" opacity="0.2"/>
		<path d="M4.30999 0.376739C3.30999 -1.55325 1.35998 4.19675 0 11.5767C0 21.7567 0.179992 33.3368 1.07001 43.1467C7.85997 30.5967 6.41997 4.37674 4.30999 0.376739Z" fill-rule="nonzero" transform="matrix(1 0 0 1 349.95 259.403)" fill="rgb(0, 0, 0)" opacity="0.2"/>
		<path d="M0 10.32L4.10001 13.5L16.57 3.39001L12.83 0L0 10.32Z" fill-rule="nonzero" transform="matrix(1 0 0 1 389.3 363)" fill="rgb(44, 107, 219)"/>
		<path d="M0 10.32L4.10001 13.5L16.57 3.39001L12.83 0L0 10.32Z" fill-rule="nonzero" transform="matrix(1 0 0 1 389.3 363)" fill="rgb(250, 250, 250)" opacity="0.4"/>
		<path d="M11.9008 0C11.9008 0 0.840759 46.9 0.0607605 69.3C-0.809234 94.43 7.95077 153.69 7.95077 153.69L20.4008 153.69C20.4008 153.69 21.9308 93.97 22.4908 71.08C23.0908 46.13 37.7308 0 37.7308 0L11.9008 0Z" fill-rule="nonzero" transform="matrix(1 0 0 1 324.729 245.11)" fill="rgb(176, 190, 197)"/>
		<path d="M11.9008 0C11.9008 0 0.840759 46.9 0.0607605 69.3C-0.809234 94.43 7.95077 153.69 7.95077 153.69L20.4008 153.69C20.4008 153.69 21.9308 93.97 22.4908 71.08C23.0908 46.13 37.7308 0 37.7308 0L11.9008 0Z" fill-rule="nonzero" transform="matrix(1 0 0 1 324.729 245.11)" fill="rgb(0, 0, 0)" opacity="0.2"/>
		<path d="M0.00338745 0C-0.0566102 0 0.7034 5.17001 0.7034 5.17001L15.8434 5.17001L16.2534 0.560028L0.00338745 0Z" fill-rule="nonzero" transform="matrix(1 0 0 1 330.287 393.84)" fill="rgb(44, 107, 219)"/>
		<path d="M0.00338745 0C-0.0566102 0 0.7034 5.17001 0.7034 5.17001L15.8434 5.17001L16.2534 0.560028L0.00338745 0Z" fill-rule="nonzero" transform="matrix(1 0 0 1 330.287 393.84)" fill="rgb(250, 250, 250)" opacity="0.4"/>
	</g>
</svg>
