<?xml version="1.0" encoding="utf-8" ?>
<svg xmlns="http://www.w3.org/2000/svg" xmlns:xlink="http://www.w3.org/1999/xlink" width="32" height="32" viewBox="0 0 32 32">
	<defs>
		<clipPath id="clipPath7964295891">
			<path d="M0 0L32 0L32 32L0 32L0 0Z" fill-rule="nonzero" transform="matrix(1 0 0 1 0 0)"/>
		</clipPath>
	</defs>
	<g clip-path="url(#clipPath7964295891)">
		<defs>
			<clipPath id="clipPath6905493548">
				<path d="M0 0L24 0L24 24L0 24L0 0Z" fill-rule="nonzero" transform="matrix(1 0 0 1 4 4)"/>
			</clipPath>
		</defs>
		<g clip-path="url(#clipPath6905493548)">
			<path d="M14.3612 6.76Q14.9912 4.6 13.6412 2.8Q12.2912 1 10.0412 1Q7.79118 1 6.44117 2.8Q5.09118 4.6 5.72118 6.76Q5.74875 6.85455 5.75735 6.95267Q5.76595 7.05078 5.75525 7.14869Q5.74454 7.2466 5.71494 7.34053Q5.68534 7.43447 5.63799 7.52083Q5.59063 7.60719 5.52733 7.68265Q5.46404 7.75811 5.38724 7.81977Q5.31044 7.88143 5.22308 7.92693Q5.13573 7.97242 5.04118 8Q4.97337 8.01978 4.90346 8.02982Q3.68556 8.2049 2.83944 8.83133Q1.99333 9.45776 1.4704 10.5715Q0.947464 11.6853 1.00593 12.7365Q1.0644 13.7876 1.70764 14.8365Q2.35087 15.8854 3.26124 16.4141Q4.1716 16.9429 5.40142 16.9818Q6.63123 17.0207 7.57321 16.5506Q8.51519 16.0805 9.22346 15.0744Q9.28016 14.9938 9.35148 14.9259Q9.42279 14.858 9.50599 14.8053Q9.58919 14.7526 9.68108 14.7171Q9.77296 14.6816 9.87 14.6648Q9.96703 14.6479 10.0655 14.6503Q10.164 14.6527 10.2601 14.6742Q10.3562 14.6958 10.4462 14.7357Q10.5363 14.7756 10.6168 14.8323Q10.7599 14.933 10.8603 15.0764Q11.5669 16.0855 12.5088 16.5579Q13.4507 17.0302 14.682 16.9931Q15.9134 16.956 16.8251 16.4277Q17.7368 15.8994 18.3813 14.8496Q19.0258 13.7998 19.0844 12.7477Q19.1429 11.6957 18.6189 10.5808Q18.0934 9.46289 17.2455 8.83337Q16.3966 8.2031 15.1803 8.03003Q15.0828 8.01615 14.9899 7.98352Q14.8969 7.95089 14.8122 7.90076Q14.7274 7.85062 14.654 7.78491Q14.5806 7.7192 14.5215 7.64044Q14.4624 7.56168 14.4197 7.4729Q14.3771 7.38412 14.3526 7.28872Q14.3281 7.19332 14.3227 7.09498Q14.3173 6.99664 14.3311 6.89913Q14.3412 6.82849 14.3612 6.76ZM16.2812 7.32L15.3212 7.04L15.462 6.04997Q17.1811 6.29458 18.4378 7.22758Q19.6894 8.15691 20.4289 9.72996Q21.1679 11.3022 21.0813 12.8589Q20.9947 14.4155 20.0857 15.896Q19.1767 17.3765 17.8278 18.1582Q16.4788 18.9398 14.7423 18.9922Q13.0058 19.0446 11.6122 18.3456Q10.2186 17.6467 9.22204 16.2236L10.0412 15.65L10.8589 16.2256Q9.86 17.6446 8.46629 18.3401Q7.07257 19.0357 5.33815 18.9808Q3.60373 18.9259 2.25679 18.1436Q0.909849 17.3613 0.00269055 15.882Q-0.904468 14.4028 -0.990978 12.8475Q-1.07749 11.2923 -0.33999 9.72154Q0.397508 8.15076 1.64938 7.22393Q2.90125 6.29709 4.61889 6.05017L4.76118 7.04L3.80118 7.32Q2.89118 4.2 4.84117 1.6Q6.79118 -1 10.0412 -1Q13.2912 -1 15.2412 1.6Q17.1912 4.2 16.2812 7.32Z" fill-rule="nonzero" transform="matrix(1 0 0 1 5.95883 6.01)" fill="rgb(60, 179, 113)"/>
			<path d="M0 -1C-0.55228 -1 -1 -0.55228 -1 0L-1 4.34C-1 4.89228 -0.55228 5.34 0 5.34C0.55228 5.34 1 4.89228 1 4.34L1 0C1 -0.55228 0.55228 -1 0 -1Z" fill-rule="evenodd" transform="matrix(1 0 0 1 16 21.66)" fill="rgb(60, 179, 113)"/>
		</g>
	</g>
</svg>
