<?xml version="1.0" encoding="utf-8" ?>
<svg xmlns="http://www.w3.org/2000/svg" xmlns:xlink="http://www.w3.org/1999/xlink" width="32" height="32" viewBox="0 0 32 32">
	<defs>
		<clipPath id="clipPath1477405937">
			<path d="M0 0L32 0L32 32L0 32L0 0Z" fill-rule="nonzero" transform="matrix(1 0 0 1 0 0)"/>
		</clipPath>
	</defs>
	<g clip-path="url(#clipPath1477405937)">
		<defs>
			<clipPath id="clipPath0584005446">
				<path d="M0 0L32 0L32 32L0 32L0 0Z" fill-rule="nonzero" transform="matrix(1 0 0 1 -0 -0)"/>
			</clipPath>
		</defs>
		<g clip-path="url(#clipPath0584005446)">
			<path d="M17.1046 7.77123Q18.6667 6.20914 18.6667 4Q18.6667 1.79086 17.1046 0.228764Q15.5425 -1.33333 13.3333 -1.33333Q11.1242 -1.33333 9.5621 0.228764Q8 1.79086 8 4Q8 6.20914 9.5621 7.77124Q11.1242 9.33333 13.3333 9.33333Q15.5425 9.33333 17.1046 7.77123ZM15.2189 2.11438Q16 2.89543 16 4Q16 5.10457 15.2189 5.88562Q14.4379 6.66667 13.3333 6.66667Q12.2288 6.66667 11.4477 5.88562Q10.6667 5.10457 10.6667 4Q10.6667 2.89543 11.4477 2.11438Q12.2288 1.33333 13.3333 1.33333Q14.4379 1.33333 15.2189 2.11438ZM8 8Q8 9.65685 6.82843 10.8284Q5.65685 12 4 12Q2.34315 12 1.17157 10.8284Q0 9.65685 0 8Q0 6.34314 1.17157 5.17157Q2.34315 4 4 4Q5.65685 4 6.82843 5.17157Q8 6.34314 8 8ZM26.6667 8Q26.6667 9.65685 25.4951 10.8284Q24.3235 12 22.6667 12Q21.0098 12 19.8382 10.8284Q18.6667 9.65685 18.6667 8Q18.6667 6.34315 19.8382 5.17157Q21.0098 4 22.6667 4Q24.3235 4 25.4951 5.17157Q26.6667 6.34315 26.6667 8ZM5.33333 8Q5.33333 7.44771 4.94281 7.05719Q4.55228 6.66667 4 6.66667Q3.44771 6.66667 3.05719 7.05719Q2.66667 7.44771 2.66667 8Q2.66667 8.55229 3.05719 8.94281Q3.44771 9.33333 4 9.33333Q4.55228 9.33333 4.94281 8.94281Q5.33333 8.55229 5.33333 8ZM24 8Q24 7.44771 23.6095 7.05719Q23.219 6.66667 22.6667 6.66667Q22.1144 6.66667 21.7239 7.05719Q21.3333 7.44771 21.3333 8Q21.3333 8.55228 21.7239 8.94281Q22.1144 9.33333 22.6667 9.33333Q23.2189 9.33333 23.6095 8.94281Q24 8.55228 24 8ZM21.1685 13.5484Q20.4886 13.7474 19.9091 14.0949Q19.0798 12.8945 17.8194 12.0414Q15.7873 10.6657 13.3333 10.6657Q10.8794 10.6657 8.84724 12.0414Q7.58681 12.8946 6.75752 14.0949Q6.17802 13.7474 5.4982 13.5484Q3.86284 13.0697 2.25289 13.6279Q0.64294 14.1861 -0.345135 15.5743Q-1.33321 16.9626 -1.33333 18.6666L-1.33333 21.3333Q-1.33333 21.3988 -1.32691 21.464Q-1.32049 21.5292 -1.30771 21.5935Q-1.29493 21.6577 -1.27592 21.7204Q-1.25691 21.7831 -1.23184 21.8436Q-1.20677 21.9041 -1.1759 21.9619Q-1.14502 22.0196 -1.10863 22.0741Q-1.07223 22.1286 -1.03068 22.1792Q-0.989126 22.2298 -0.942809 22.2761Q-0.896492 22.3225 -0.845858 22.364Q-0.795224 22.4056 -0.74076 22.442Q-0.686297 22.4784 -0.628529 22.5092Q-0.570761 22.5401 -0.510244 22.5652Q-0.449728 22.5902 -0.387046 22.6093Q-0.324364 22.6283 -0.26012 22.641Q-0.195877 22.6538 -0.13069 22.6602Q-0.0655025 22.6667 0 22.6667L26.6667 22.6667Q26.7322 22.6667 26.7974 22.6602Q26.8625 22.6538 26.9268 22.641Q26.991 22.6283 27.0537 22.6093Q27.1164 22.5902 27.1769 22.5652Q27.2374 22.5401 27.2952 22.5092Q27.353 22.4784 27.4074 22.442Q27.4619 22.4056 27.5125 22.364Q27.5632 22.3225 27.6095 22.2761Q27.6558 22.2298 27.6973 22.1792Q27.7389 22.1286 27.7753 22.0741Q27.8117 22.0196 27.8426 21.9619Q27.8734 21.9041 27.8985 21.8436Q27.9236 21.7831 27.9426 21.7204Q27.9616 21.6577 27.9744 21.5935Q27.9872 21.5292 27.9936 21.464Q28 21.3988 28 21.3333L28 18.6667Q27.9999 16.9626 27.0118 15.5743Q26.0237 14.1861 24.4138 13.6279Q22.8038 13.0697 21.1685 13.5484ZM8 20L18.6667 20L18.6667 18.6667Q18.6667 18.4081 18.643 18.155Q18.572 17.3968 18.2874 16.686Q17.6795 15.1669 16.3246 14.2496Q14.9696 13.3324 13.3333 13.3324Q11.6971 13.3324 10.3421 14.2496Q8.98712 15.1669 8.379 16.6866Q8 17.6325 8 18.6667L8 20ZM4.7491 16.1077Q3.93142 15.8683 3.12644 16.1474Q2.32147 16.4265 1.82743 17.1207Q1.3334 17.8148 1.33333 18.6668L1.33333 20L5.33333 20L5.33333 18.6667Q5.33333 17.5737 5.61743 16.5431Q5.59744 16.5278 5.57716 16.5129Q5.20904 16.2423 4.7491 16.1077ZM21.0493 16.5431Q21.2327 17.2086 21.2977 17.9002Q21.3333 18.2795 21.3333 18.6667L21.3333 20L25.3333 20L25.3333 18.6667Q25.3333 17.8148 24.8392 17.1207Q24.3452 16.4265 23.5402 16.1474Q22.7352 15.8683 21.9176 16.1077Q21.8665 16.1226 21.8165 16.1393Q21.392 16.2806 21.0493 16.5431Z" fill-rule="evenodd" transform="matrix(1 0 0 1 2.66667 5.33333)" fill="rgb(60, 179, 113)"/>
		</g>
	</g>
</svg>
