<?xml version="1.0" encoding="utf-8" ?>
<svg xmlns="http://www.w3.org/2000/svg" xmlns:xlink="http://www.w3.org/1999/xlink" width="32" height="32" viewBox="0 0 32 32">
	<defs>
		<clipPath id="clipPath8807825167">
			<path d="M0 0L32 0L32 32L0 32L0 0Z" fill-rule="nonzero" transform="matrix(1 0 0 1 0 0)"/>
		</clipPath>
	</defs>
	<g clip-path="url(#clipPath8807825167)">
		<defs>
			<clipPath id="clipPath6250065740">
				<path d="M0 0L32 0L32 32L0 32L0 0Z" fill-rule="nonzero" transform="matrix(1 0 0 1 -0 -0)"/>
			</clipPath>
		</defs>
		<g clip-path="url(#clipPath6250065740)">
			<path d="M25.3333 11.9954Q25.3352 17.5196 21.4297 21.4265Q17.5242 25.3333 12 25.3333Q6.4758 25.3333 2.57028 21.4265Q-1.33524 17.5196 -1.33333 11.9954Q-1.33143 6.4739 2.57354 2.57028Q6.4785 -1.33333 12 -1.33333Q17.5215 -1.33333 21.4265 2.57028Q25.3314 6.4739 25.3333 11.9954ZM22.6667 11.9963Q22.6651 7.57912 19.5412 4.45623Q16.4172 1.33333 12 1.33333Q7.5828 1.33333 4.45883 4.45622Q1.33486 7.57912 1.33333 11.9963Q1.33181 16.4157 4.45622 19.5412Q7.58064 22.6667 12 22.6667Q16.4194 22.6667 19.5438 19.5412Q22.6682 16.4157 22.6667 11.9963ZM15.0572 8.38638C15.5779 7.86569 16.4221 7.86569 16.9428 8.38638C17.4635 8.90708 17.4635 9.7513 16.9428 10.272L11.6095 15.6053Q11.5632 15.6517 11.5125 15.6932Q11.4619 15.7348 11.4074 15.7711Q11.353 15.8075 11.2952 15.8384Q11.2374 15.8693 11.1769 15.8944Q11.1164 15.9194 11.0537 15.9384Q10.991 15.9575 10.9268 15.9702Q10.8625 15.983 10.7974 15.9894Q10.7322 15.9959 10.6667 15.9959Q10.6012 15.9959 10.536 15.9894Q10.4708 15.983 10.4065 15.9702Q10.3423 15.9575 10.2796 15.9384Q10.2169 15.9194 10.1564 15.8944Q10.0959 15.8693 10.0381 15.8384Q9.98037 15.8075 9.92591 15.7711Q9.87144 15.7348 9.82081 15.6932Q9.77018 15.6517 9.72386 15.6053L7.05719 12.9387C6.5365 12.418 6.5365 11.5737 7.05719 11.053C7.57789 10.5324 8.42212 10.5324 8.94281 11.053L10.6667 12.7769L15.0572 8.38638Z" fill-rule="evenodd" transform="matrix(1 0 0 1 4 4.00414)" fill="rgb(60, 179, 113)"/>
		</g>
	</g>
</svg>
