<?xml version="1.0" encoding="utf-8" ?>
<svg xmlns="http://www.w3.org/2000/svg" xmlns:xlink="http://www.w3.org/1999/xlink" width="48" height="48" viewBox="0 0 48 48">
	<defs>
		<clipPath id="clipPath7936785554">
			<path d="M0 0L48 0L48 48L0 48L0 0Z" fill-rule="nonzero" transform="matrix(1 0 0 1 0 0)"/>
		</clipPath>
	</defs>
	<g clip-path="url(#clipPath7936785554)">
		<defs>
			<clipPath id="clipPath7541296469">
				<path d="M0 0L48 0L48 48L0 48L0 0Z" fill-rule="nonzero" transform="matrix(1 0 0 1 -0 -0)"/>
			</clipPath>
		</defs>
		<g clip-path="url(#clipPath7541296469)">
			<path d="M24.4851 -1.94029C23.4135 -2.20818 22.3276 -1.55665 22.0597 -0.485071L14.0597 31.5149C13.7918 32.5865 14.4433 33.6724 15.5149 33.9403C16.5865 34.2082 17.6724 33.5567 17.9403 32.4851L25.9403 0.485071C26.2082 -0.58651 25.5567 -1.67239 24.4851 -1.94029ZM9.41421 6.58579C8.63317 5.80474 7.36683 5.80474 6.58579 6.58579L-1.41421 14.5858Q-1.5535 14.7251 -1.66294 14.8889Q-1.77238 15.0526 -1.84776 15.2346Q-1.92314 15.4166 -1.96157 15.6098Q-2 15.803 -2 16Q-2 16.197 -1.96157 16.3902Q-1.92314 16.5834 -1.84776 16.7654Q-1.77238 16.9474 -1.66294 17.1111Q-1.5535 17.2749 -1.41421 17.4142L6.58579 25.4142C7.36683 26.1953 8.63317 26.1953 9.41421 25.4142C10.1953 24.6332 10.1953 23.3668 9.41421 22.5858L2.82843 16L9.41421 9.41421C10.1953 8.63317 10.1953 7.36683 9.41421 6.58579ZM30.5858 9.41421C29.8047 8.63317 29.8047 7.36683 30.5858 6.58579C31.3668 5.80474 32.6332 5.80474 33.4142 6.58579L41.4142 14.5858Q41.4837 14.6553 41.546 14.7312Q41.6084 14.8072 41.6629 14.8889Q41.7175 14.9706 41.7638 15.0572Q41.8102 15.1439 41.8478 15.2346Q41.8854 15.3254 41.9139 15.4194Q41.9424 15.5135 41.9616 15.6098Q41.9807 15.7062 41.9904 15.804Q42 15.9017 42 16Q42 16.0983 41.9904 16.196Q41.9807 16.2938 41.9616 16.3902Q41.9424 16.4865 41.9139 16.5806Q41.8854 16.6746 41.8478 16.7654Q41.8102 16.8561 41.7638 16.9428Q41.7175 17.0294 41.6629 17.1111Q41.6084 17.1928 41.546 17.2688Q41.4837 17.3447 41.4142 17.4142L33.4142 25.4142C32.6332 26.1953 31.3668 26.1953 30.5858 25.4142C29.8047 24.6332 29.8047 23.3668 30.5858 22.5858L37.1716 16L30.5858 9.41421Z" fill-rule="evenodd" transform="matrix(1 0 0 1 4 8)" fill="rgb(60, 179, 113)"/>
		</g>
	</g>
</svg>
