<?xml version="1.0" encoding="utf-8" ?>
<svg xmlns="http://www.w3.org/2000/svg" xmlns:xlink="http://www.w3.org/1999/xlink" width="48" height="48" viewBox="0 0 48 48">
	<defs>
		<clipPath id="clipPath1049575909">
			<path d="M0 0L48 0L48 48L0 48L0 0Z" fill-rule="nonzero" transform="matrix(1 0 0 1 0 0)"/>
		</clipPath>
	</defs>
	<g clip-path="url(#clipPath1049575909)">
		<defs>
			<clipPath id="clipPath9375670760">
				<path d="M0 0L48 0L48 48L0 48L0 0Z" fill-rule="nonzero" transform="matrix(1 0 0 1 -0 -0)"/>
			</clipPath>
		</defs>
		<g clip-path="url(#clipPath9375670760)">
			<path d="M-2 8Q-2 5.63937 -0.269524 3.59365Q1.21021 1.84435 3.7922 0.553584Q6.23612 -0.668167 9.35863 -1.32831Q12.5357 -2 16 -2Q19.4643 -2 22.6414 -1.32831Q25.7639 -0.668167 28.2078 0.553584Q30.7898 1.84435 32.2695 3.59365Q34 5.63937 34 8L34 28Q34 30.3606 32.2695 32.4063Q30.7898 34.1557 28.2078 35.4464Q25.7639 36.6682 22.6414 37.3283Q19.4643 38 16 38Q12.5357 38 9.35863 37.3283Q6.23612 36.6682 3.7922 35.4464Q1.21022 34.1557 -0.269524 32.4063Q-2 30.3606 -2 28L-2 8ZM2 24.4066L2 28Q2 28.8957 2.7844 29.823Q3.7336 30.9451 5.5808 31.8686Q7.56564 32.8608 10.186 33.4148Q12.954 34 16 34Q19.046 34 21.814 33.4148Q24.4344 32.8608 26.4192 31.8686Q28.2664 30.9451 29.2156 29.823Q30 28.8957 30 28L30 24.4066Q29.1824 24.9592 28.2078 25.4464Q25.7639 26.6682 22.6414 27.3283Q19.4643 28 16 28Q12.5357 28 9.35863 27.3283Q6.23613 26.6682 3.7922 25.4464Q2.81757 24.9592 2 24.4066ZM30 18L30 14.4066Q29.1824 14.9592 28.2078 15.4464Q25.7639 16.6682 22.6414 17.3283Q19.4643 18 16 18Q12.5357 18 9.35863 17.3283Q6.23612 16.6682 3.7922 15.4464Q2.81757 14.9592 2 14.4066L2 18Q2 18.8957 2.7844 19.823Q3.73359 20.9451 5.5808 21.8686Q7.56564 22.8608 10.186 23.4148Q12.954 24 16 24Q19.046 24 21.814 23.4148Q24.4344 22.8608 26.4192 21.8686Q28.2664 20.9451 29.2156 19.823Q30 18.8957 30 18ZM2.7844 6.17697Q2 7.10427 2 8Q2 8.89573 2.7844 9.82303Q3.7336 10.9451 5.5808 11.8686Q7.56565 12.8608 10.186 13.4148Q12.9539 14 16 14Q19.0461 14 21.814 13.4148Q24.4343 12.8608 26.4192 11.8686Q28.2664 10.9451 29.2156 9.82303Q30 8.89573 30 8Q30 7.10427 29.2156 6.17697Q28.2664 5.05486 26.4192 4.13142Q24.4344 3.13917 21.814 2.58519Q19.0461 2 16 2Q12.9539 2 10.186 2.58519Q7.56564 3.13917 5.5808 4.13142Q3.7336 5.05486 2.7844 6.17697Z" fill-rule="evenodd" transform="matrix(1 0 0 1 8 6)" fill="rgb(60, 179, 113)"/>
		</g>
	</g>
</svg>
