<?xml version="1.0" encoding="utf-8" ?>
<svg xmlns="http://www.w3.org/2000/svg" xmlns:xlink="http://www.w3.org/1999/xlink" width="48" height="48" viewBox="0 0 48 48">
	<defs>
		<clipPath id="clipPath7921672799">
			<path d="M0 0L48 0L48 48L0 48L0 0Z" fill-rule="nonzero" transform="matrix(1 0 0 1 0 0)"/>
		</clipPath>
	</defs>
	<g clip-path="url(#clipPath7921672799)">
		<defs>
			<clipPath id="clipPath2271394564">
				<path d="M0 0L48 0L48 48L0 48L0 0Z" fill-rule="nonzero" transform="matrix(1 0 0 1 -0 -0)"/>
			</clipPath>
		</defs>
		<g clip-path="url(#clipPath2271394564)">
			<path d="M35.1299 4.08281Q35.2156 4.07827 35.3013 4.08106Q35.387 4.08386 35.4721 4.09399Q35.5573 4.10411 35.6412 4.12148Q35.7252 4.13885 35.8074 4.16335Q35.8895 4.18784 35.9693 4.21928Q36.0491 4.25072 36.1259 4.28887Q36.2027 4.32702 36.2759 4.3716Q36.3491 4.41619 36.4183 4.46688Q36.4875 4.51756 36.552 4.57398Q36.6166 4.6304 36.6761 4.69215Q36.7356 4.75389 36.7896 4.82049Q36.8436 4.8871 36.8917 4.95808Q36.9398 5.02906 36.9816 5.1039Q37.0235 5.17874 37.0588 5.25689Q37.0941 5.33504 37.1225 5.41592Q37.151 5.4968 37.1725 5.57982Q38 8.78368 38 12.112Q38 16.5768 36.5297 20.7518Q35.1086 24.7872 32.4546 28.1647Q29.8275 31.5079 26.2794 33.8435Q22.6703 36.2193 18.4985 37.2929Q18.2532 37.356 18 37.356Q17.7468 37.356 17.5016 37.2929Q13.3297 36.2193 9.72051 33.8432Q6.1725 31.5074 3.54539 28.1639Q0.891488 24.7863 -0.529672 20.751Q-1.99999 16.5761 -1.99999 12.1136Q-2.00133 10.4605 -1.79361 8.82044Q-1.58589 7.1804 -1.17243 5.5798Q-1.15099 5.49678 -1.12251 5.4159Q-1.09404 5.33502 -1.05875 5.25687Q-1.02346 5.17873 -0.981617 5.10389Q-0.939769 5.02905 -0.891669 4.95807Q-0.843569 4.88708 -0.789571 4.82048Q-0.735573 4.75387 -0.676072 4.69214Q-0.616572 4.6304 -0.552005 4.57398Q-0.487439 4.51756 -0.418281 4.46687Q-0.349122 4.41618 -0.27588 4.3716Q-0.202637 4.32702 -0.125847 4.28887Q-0.0490576 4.25072 0.0307154 4.21928Q0.110488 4.18784 0.192659 4.16335Q0.27483 4.13885 0.358796 4.12148Q0.442762 4.10411 0.527907 4.09399Q0.613051 4.08386 0.69875 4.08107Q0.784448 4.07827 0.870072 4.08281Q5.21619 4.31362 9.32056 2.8658Q13.4249 1.41799 16.6643 -1.48861Q16.7324 -1.5497 16.8058 -1.60432Q16.8792 -1.65895 16.9572 -1.70664Q17.0353 -1.75433 17.1174 -1.7947Q17.1995 -1.83507 17.2849 -1.86778Q17.3703 -1.90049 17.4584 -1.92526Q17.5464 -1.95004 17.6364 -1.96667Q17.7263 -1.9833 17.8174 -1.99165Q17.9085 -2 18 -2Q18.0915 -2 18.1826 -1.99165Q18.2737 -1.9833 18.3636 -1.96667Q18.4536 -1.95004 18.5416 -1.92526Q18.6297 -1.90049 18.7151 -1.86778Q18.8006 -1.83507 18.8826 -1.7947Q18.9647 -1.75433 19.0428 -1.70664Q19.1208 -1.65895 19.1942 -1.60432Q19.2676 -1.5497 19.3357 -1.48861Q22.5751 1.41798 26.6795 2.8658Q30.7838 4.31362 35.1299 4.08281ZM25.3488 6.63799Q29.3941 8.06496 33.638 8.11304Q34 10.0845 34 12.112Q34 15.8931 32.7568 19.4232Q31.5552 22.8353 29.3094 25.6933Q27.0845 28.5247 24.0801 30.5024Q21.2446 32.369 18 33.2847Q14.7556 32.369 11.92 30.5022Q8.91563 28.5243 6.69063 25.6926Q4.44489 22.8345 3.24319 19.4223Q2.00001 15.8924 2.00001 12.1104Q1.99887 10.7112 2.17469 9.32306Q2.25172 8.71484 2.36219 8.11304Q6.60598 8.06494 10.6512 6.63799Q14.6776 5.2177 18 2.61028Q21.3225 5.21769 25.3488 6.63799ZM22.5858 12.6978C23.3668 11.9167 24.6332 11.9167 25.4142 12.6978C26.1953 13.4788 26.1953 14.7452 25.4142 15.5262L17.4142 23.5262Q17.3447 23.5957 17.2688 23.658Q17.1928 23.7204 17.1111 23.7749Q17.0295 23.8295 16.9428 23.8758Q16.8561 23.9222 16.7654 23.9598Q16.6746 23.9974 16.5806 24.0259Q16.4866 24.0544 16.3902 24.0736Q16.2938 24.0927 16.196 24.1024Q16.0983 24.112 16 24.112Q15.9018 24.112 15.804 24.1024Q15.7062 24.0927 15.6098 24.0736Q15.5135 24.0544 15.4194 24.0259Q15.3254 23.9974 15.2346 23.9598Q15.1439 23.9222 15.0572 23.8758Q14.9706 23.8295 14.8889 23.7749Q14.8072 23.7204 14.7312 23.658Q14.6553 23.5957 14.5858 23.5262L10.5858 19.5262C9.80475 18.7452 9.80475 17.4788 10.5858 16.6978C11.3668 15.9167 12.6332 15.9167 13.4142 16.6978L16 19.2836L22.5858 12.6978Z" fill-rule="evenodd" transform="matrix(1 0 0 1 5.99999 5.888)" fill="rgb(60, 179, 113)"/>
		</g>
	</g>
</svg>
