<svg xmlns="http://www.w3.org/2000/svg" viewBox="0 0 500 500"><g id="freepik--background-complete--inject-96"><rect y="382.4" width="500" height="0.25" style="fill:#e6e6e6"></rect><rect x="72.44" y="391.89" width="34.4" height="0.25" style="fill:#e6e6e6"></rect><rect x="287.94" y="393.67" width="10.28" height="0.25" style="fill:#e6e6e6"></rect><rect x="117.3" y="395.45" width="19.36" height="0.25" style="fill:#e6e6e6"></rect><rect x="394.11" y="394.86" width="25.68" height="0.25" style="fill:#e6e6e6"></rect><rect x="359.06" y="391.31" width="17.54" height="0.25" style="fill:#e6e6e6"></rect><rect x="179.81" y="390.91" width="93.68" height="0.25" style="fill:#e6e6e6"></rect><path d="M237,337.8H43.91a5.71,5.71,0,0,1-5.7-5.71V60.66A5.71,5.71,0,0,1,43.91,55H237a5.71,5.71,0,0,1,5.71,5.71V332.09A5.71,5.71,0,0,1,237,337.8ZM43.91,55.2a5.46,5.46,0,0,0-5.45,5.46V332.09a5.46,5.46,0,0,0,5.45,5.46H237a5.47,5.47,0,0,0,5.46-5.46V60.66A5.47,5.47,0,0,0,237,55.2Z" style="fill:#e6e6e6"></path><path d="M453.31,337.8H260.21a5.72,5.72,0,0,1-5.71-5.71V60.66A5.72,5.72,0,0,1,260.21,55h193.1A5.71,5.71,0,0,1,459,60.66V332.09A5.71,5.71,0,0,1,453.31,337.8ZM260.21,55.2a5.47,5.47,0,0,0-5.46,5.46V332.09a5.47,5.47,0,0,0,5.46,5.46h193.1a5.47,5.47,0,0,0,5.46-5.46V60.66a5.47,5.47,0,0,0-5.46-5.46Z" style="fill:#e6e6e6"></path><path d="M343.82,284.61h0c-.55,0-1.1,0-1.66.05A23.68,23.68,0,0,0,321,314.44a118.6,118.6,0,0,1,3.71,30.84v30.28a4,4,0,0,0,4,4h96.11V284.61Z" style="fill:#f0f0f0"></path><path d="M448.43,308.28a23.67,23.67,0,0,0-47.29-1.54,23.37,23.37,0,0,0,.76,7.7,118.6,118.6,0,0,1,3.71,30.84v30.28a4,4,0,0,0,4,4h30.35a4,4,0,0,0,4-4V343.5a108.19,108.19,0,0,1,3.66-28.89A23.65,23.65,0,0,0,448.43,308.28Z" style="fill:#fafafa"></path><rect x="223.13" y="321.9" width="169.01" height="57.63" style="fill:#f0f0f0"></rect><path d="M169.75,252.86H332.12A17.92,17.92,0,0,1,350,270.78v64.15a0,0,0,0,1,0,0H151.83a0,0,0,0,1,0,0V270.78A17.92,17.92,0,0,1,169.75,252.86Z" style="fill:#e6e6e6"></path><path d="M191.44,252.86h164.1a17.05,17.05,0,0,1,17.05,17.05v65a0,0,0,0,1,0,0H174.39a0,0,0,0,1,0,0v-65A17.05,17.05,0,0,1,191.44,252.86Z" style="fill:#fafafa"></path><path d="M228.78,316.64H391a5.2,5.2,0,0,1,5.2,5.2v13.07a5.2,5.2,0,0,1-5.2,5.2H228.78a1.55,1.55,0,0,1-1.55-1.55V318.19A1.55,1.55,0,0,1,228.78,316.64Z" style="fill:#e6e6e6"></path><path d="M143.32,284.61h0c-.55,0-1.1,0-1.66.05a23.68,23.68,0,0,0-21.2,29.77,118.6,118.6,0,0,1,3.71,30.84v30.28a4,4,0,0,0,4,4h96.11V284.61Z" style="fill:#f0f0f0"></path><path d="M247.93,308.28a23.67,23.67,0,0,0-47.29-1.54,23.37,23.37,0,0,0,.76,7.7,118.6,118.6,0,0,1,3.71,30.84v30.28a4,4,0,0,0,4,4h30.35a4,4,0,0,0,4-4V343.5a108.19,108.19,0,0,1,3.66-28.89A23.65,23.65,0,0,0,247.93,308.28Z" style="fill:#fafafa"></path><path d="M423.07,382.41H145a2.88,2.88,0,0,1-2.88-2.88H426A2.88,2.88,0,0,1,423.07,382.41Z" style="fill:#e0e0e0"></path><rect x="119.9" y="112.33" width="171.15" height="83.34" style="fill:#e0e0e0"></rect><rect x="125.62" y="112.33" width="173.65" height="83.34" style="fill:#f5f5f5"></rect><rect x="177.34" y="73.75" width="70.21" height="160.51" transform="translate(366.45 -58.44) rotate(90)" style="fill:#fff"></rect><rect x="194.35" y="89.57" width="36.17" height="128.87" rx="11.81" transform="translate(366.45 -58.44) rotate(90)" style="fill:#f5f5f5"></rect><rect x="332.01" y="162.89" width="40.77" height="42.24" style="fill:#e0e0e0"></rect><rect x="337.2" y="162.89" width="39.74" height="42.24" style="fill:#f5f5f5"></rect><rect x="339.28" y="167.47" width="35.59" height="33.08" transform="translate(541.08 -173.06) rotate(90)" style="fill:#fff"></rect><polygon points="357.07 175.02 348.02 190.69 366.12 190.69 357.07 175.02" style="fill:#f5f5f5"></polygon><rect x="386.34" y="135.2" width="40.77" height="42.24" style="fill:#e0e0e0"></rect><rect x="391.54" y="135.2" width="39.74" height="42.24" style="fill:#f5f5f5"></rect><rect x="393.61" y="139.78" width="35.59" height="33.08" transform="translate(567.73 -255.08) rotate(90)" style="fill:#fff"></rect><path d="M415.45,162.67l3.93-6.8a4.67,4.67,0,0,0-4.05-7h-7.85a4.67,4.67,0,0,0-4.05,7l3.93,6.8A4.67,4.67,0,0,0,415.45,162.67Z" style="fill:#f5f5f5"></path><rect x="35.05" y="308" width="22.57" height="69.97" style="fill:#e6e6e6"></rect><rect x="39.38" y="377.97" width="111.28" height="4.43" style="fill:#e6e6e6"></rect><rect x="57.62" y="308" width="97.38" height="69.97" transform="translate(212.62 685.97) rotate(180)" style="fill:#fafafa"></rect><rect x="66.49" y="316.61" width="79.64" height="22.95" transform="translate(212.62 656.17) rotate(180)" style="fill:#f0f0f0"></rect><rect x="66.49" y="346.41" width="79.64" height="22.95" transform="translate(212.62 715.76) rotate(180)" style="fill:#f0f0f0"></rect><path d="M115.88,329.66H96.74a1.58,1.58,0,0,1-1.57-1.58h0a1.58,1.58,0,0,1,1.57-1.57h19.14a1.58,1.58,0,0,1,1.57,1.57h0A1.58,1.58,0,0,1,115.88,329.66Z" style="fill:#fafafa"></path><path d="M115.88,359.45H96.74a1.57,1.57,0,0,1-1.57-1.57h0a1.57,1.57,0,0,1,1.57-1.57h19.14a1.57,1.57,0,0,1,1.57,1.57h0A1.57,1.57,0,0,1,115.88,359.45Z" style="fill:#fafafa"></path><path d="M87.86,256.67h-13c.37,12.6-5.38,19.72-5.38,34.55,0,13.34,3.26,15.84,11.89,15.84s11.89-2.5,11.89-15.84C93.24,276.39,87.48,269.27,87.86,256.67Z" style="fill:#fafafa"></path><path d="M76.63,306.58h9.44a0,0,0,0,1,0,0v.8a.62.62,0,0,1-.62.62h-8.2a.62.62,0,0,1-.62-.62v-.8A0,0,0,0,1,76.63,306.58Z" style="fill:#f3f7ff"></path><rect x="66.03" y="261.26" width="1" height="19.13" style="fill:#e0e0e0"></rect><polygon points="102.01 267.28 60.68 267.28 67.77 224.92 94.93 224.92 102.01 267.28" style="fill:#ebebeb"></polygon></g><g id="freepik--Shadow--inject-96"><ellipse cx="250" cy="416.24" rx="193.89" ry="11.32" style="fill:#f5f5f5"></ellipse></g><g id="freepik--Plant--inject-96"><path d="M242.35,386.62c-.94-32.63-2.14-189.64-.26-206l3.75-4.09s-.09,4.69-.18,17.18c-.39,55.9-1.84,184.57-1.52,192.88Z" style="fill:#92E3A9"></path><path d="M242.35,386.62c-.94-32.63-2.14-189.64-.26-206l3.75-4.09s-.09,4.69-.18,17.18c-.39,55.9-1.84,184.57-1.52,192.88Z" style="fill:#fff;opacity:0.6000000000000001"></path><path d="M257.66,293.8A123.67,123.67,0,0,1,289.12,271c8.63-4.22-14,23.34-22.86,33.61S246.5,326.23,243,335.82C242.3,316.28,246.74,304.67,257.66,293.8Z" style="fill:#92E3A9"></path><path d="M257.66,293.8A123.67,123.67,0,0,1,289.12,271c8.63-4.22-14,23.34-22.86,33.61S246.5,326.23,243,335.82C242.3,316.28,246.74,304.67,257.66,293.8Z" style="fill:#fff;opacity:0.6000000000000001"></path><path d="M242.91,210.39c-6.74-29.74-4.66-46.84,2.93-65.17,7.1-17.14,12.64-24.8,20.89-31.29,2.13-1.67-2.66,22.29-10,40.15-5.18,12.6-7.75,29-11.33,38.44C242.91,199,242.91,210.39,242.91,210.39Z" style="fill:#92E3A9"></path><path d="M242.91,210.39c-6.74-29.74-4.66-46.84,2.93-65.17,7.1-17.14,12.64-24.8,20.89-31.29,2.13-1.67-2.66,22.29-10,40.15-5.18,12.6-7.75,29-11.33,38.44C242.91,199,242.91,210.39,242.91,210.39Z" style="fill:#fff;opacity:0.6000000000000001"></path><path d="M243.27,275.56c-.74-17.8-1.63-35,11.9-57.61,3.29-5.51,32.4-52,42.45-54.8,4.93-1.36-3.83,34.61-17.29,56.08-10.1,16.09-14.76,20.35-25.81,39.13C250.17,265.76,243.27,275.56,243.27,275.56Z" style="fill:#92E3A9"></path><path d="M243.27,275.56c-.74-17.8-1.63-35,11.9-57.61,3.29-5.51,32.4-52,42.45-54.8,4.93-1.36-3.83,34.61-17.29,56.08-10.1,16.09-14.76,20.35-25.81,39.13C250.17,265.76,243.27,275.56,243.27,275.56Z" style="fill:#fff;opacity:0.6000000000000001"></path><path d="M225.89,202.05c-11.88-11.46-23.53-19-32.16-22.81s14.09,24.7,25,37.08,20.91,23.12,25.19,34.14C242.69,226.85,237.78,213.52,225.89,202.05Z" style="fill:#92E3A9"></path><path d="M225.89,202.05c-11.88-11.46-23.53-19-32.16-22.81s14.09,24.7,25,37.08,20.91,23.12,25.19,34.14C242.69,226.85,237.78,213.52,225.89,202.05Z" style="fill:#fff;opacity:0.6000000000000001"></path><path d="M243.93,309.32C242,295.91,237.6,280.6,230.85,270s-17.14-26.76-25.74-31.13c-2.06-1.05,9.31,31.7,14.82,40.76a98.76,98.76,0,0,0,16.31,20.39C237.7,301.53,243.93,309.32,243.93,309.32Z" style="fill:#92E3A9"></path><path d="M243.93,309.32C242,295.91,237.6,280.6,230.85,270s-17.14-26.76-25.74-31.13c-2.06-1.05,9.31,31.7,14.82,40.76a98.76,98.76,0,0,0,16.31,20.39C237.7,301.53,243.93,309.32,243.93,309.32Z" style="fill:#fff;opacity:0.6000000000000001"></path><polygon points="258.38 395.08 228.14 395.08 225.86 362.5 260.66 362.5 258.38 395.08" style="fill:#92E3A9"></polygon><polygon points="262.91 367.99 223.61 367.99 222.48 359.5 264.04 359.5 262.91 367.99" style="fill:#92E3A9"></polygon><g style="opacity:0.4"><polygon points="258.38 395.08 228.14 395.08 225.86 362.5 260.66 362.5 258.38 395.08"></polygon><polygon points="262.91 367.99 223.61 367.99 222.48 359.5 264.04 359.5 262.91 367.99"></polygon></g></g><g id="freepik--blog-post--inject-96"><path d="M214.67,142.92v242h148.9v-242Zm136,232.3H218.82V152.61H350.65Z" style="fill:#92E3A9"></path><path d="M214.67,142.92v242h148.9v-242Zm136,232.3H218.82V152.61H350.65Z" style="fill:#fff;opacity:0.6000000000000001"></path><rect x="217.43" y="152.61" width="1.39" height="222.61" style="fill:#fff"></rect><rect x="217.43" y="152.61" width="1.39" height="222.61" style="fill:#f0f0f0"></rect><path d="M379.18,86.27H110.43A8.79,8.79,0,0,0,101.66,95V406.75a8.79,8.79,0,0,0,8.77,8.76H379.18a8.78,8.78,0,0,0,8.76-8.76V95A8.78,8.78,0,0,0,379.18,86.27ZM218.82,152.61H350.65V375.22H218.82Z" style="fill:#92E3A9"></path><path d="M379.18,86.27H110.43A8.79,8.79,0,0,0,101.66,95V406.75a8.79,8.79,0,0,0,8.77,8.76H379.18a8.78,8.78,0,0,0,8.76-8.76V95A8.78,8.78,0,0,0,379.18,86.27ZM218.82,152.61H350.65V375.22H218.82Z" style="opacity:0.5"></path><path d="M376.85,86.27H108.1A8.79,8.79,0,0,0,99.33,95V406.75a8.79,8.79,0,0,0,8.77,8.76H376.85a8.79,8.79,0,0,0,8.76-8.76V95A8.79,8.79,0,0,0,376.85,86.27Zm-158,66.34H350.65V375.22H218.82Z" style="fill:#92E3A9"></path><path d="M376.85,86.27H108.1A8.79,8.79,0,0,0,99.33,95V406.75a8.79,8.79,0,0,0,8.77,8.76H376.85a8.79,8.79,0,0,0,8.76-8.76V95A8.79,8.79,0,0,0,376.85,86.27Zm-158,66.34H350.65V375.22H218.82Z" style="opacity:0.2"></path><path d="M99.33,108.93V406.75a8.79,8.79,0,0,0,8.77,8.76H376.85a8.79,8.79,0,0,0,8.76-8.76V108.93Zm119.49,43.68H350.65V375.22H218.82Z" style="fill:#92E3A9"></path><path d="M99.33,108.93V406.75a8.79,8.79,0,0,0,8.77,8.76H376.85a8.79,8.79,0,0,0,8.76-8.76V108.93Zm119.49,43.68H350.65V375.22H218.82Z" style="fill:#fff;opacity:0.6000000000000001"></path><path d="M101,120.58V403.86H384V120.58Zm249.7,254.64H218.82V152.61H350.65Z" style="fill:#fff"></path><circle cx="366.38" cy="97.66" r="4.66" style="fill:#92E3A9;opacity:0.76"></circle><circle cx="349.87" cy="97.66" r="4.66" style="fill:#92E3A9;opacity:0.76"></circle><path d="M328.7,97.66A4.66,4.66,0,1,0,333.36,93,4.66,4.66,0,0,0,328.7,97.66Z" style="fill:#92E3A9;opacity:0.76"></path><rect x="99.33" y="108.34" width="286.27" height="1.17" transform="translate(484.94 217.85) rotate(180)" style="fill:#92E3A9"></rect><path d="M391.44,142.92h-1v-7h1Zm0-13.09h-1V107h1Z" style="fill:#92E3A9"></path><path d="M391.44,142.92h-1v-7h1Zm0-13.09h-1V107h1Z" style="opacity:0.4"></path><rect x="148.03" y="200.77" width="28.19" height="14.01" transform="translate(324.25 415.55) rotate(180)" style="fill:#92E3A9"></rect><rect x="148.03" y="200.77" width="28.19" height="14.01" transform="translate(324.25 415.55) rotate(180)" style="fill:#fff;opacity:0.6000000000000001"></rect><rect x="127.9" y="293.26" width="52.16" height="14.01" transform="translate(307.95 600.53) rotate(180)" style="fill:#92E3A9"></rect><rect x="127.9" y="293.26" width="52.16" height="14.01" transform="translate(307.95 600.53) rotate(180)" style="fill:#fff;opacity:0.6000000000000001"></rect><rect x="81" y="131.4" width="107.87" height="14.01" transform="translate(269.87 276.81) rotate(180)" style="fill:#92E3A9"></rect><rect x="81" y="131.4" width="107.87" height="14.01" transform="translate(269.87 276.81) rotate(180)" style="fill:#fff;opacity:0.6000000000000001"></rect><rect x="81" y="154.53" width="87.16" height="14.01" transform="translate(249.16 323.06) rotate(180)" style="fill:#92E3A9"></rect><rect x="81" y="154.53" width="87.16" height="14.01" transform="translate(249.16 323.06) rotate(180)" style="fill:#fff;opacity:0.6000000000000001"></rect><rect x="81" y="177.65" width="99.05" height="14.01" transform="translate(261.05 369.3) rotate(180)" style="fill:#92E3A9"></rect><rect x="81" y="177.65" width="99.05" height="14.01" transform="translate(261.05 369.3) rotate(180)" style="fill:#fff;opacity:0.6000000000000001"></rect><rect x="81" y="200.77" width="55.32" height="14.01" transform="translate(217.32 415.55) rotate(180)" style="fill:#92E3A9"></rect><rect x="81" y="200.77" width="55.32" height="14.01" transform="translate(217.32 415.55) rotate(180)" style="fill:#fff;opacity:0.6000000000000001"></rect><rect x="81" y="223.89" width="99.05" height="14.01" transform="translate(261.05 461.79) rotate(180)" style="fill:#92E3A9"></rect><rect x="81" y="223.89" width="99.05" height="14.01" transform="translate(261.05 461.79) rotate(180)" style="fill:#fff;opacity:0.6000000000000001"></rect><rect x="81" y="247.02" width="107.87" height="14.01" transform="translate(269.87 508.04) rotate(180)" style="fill:#92E3A9"></rect><rect x="81" y="247.02" width="107.87" height="14.01" transform="translate(269.87 508.04) rotate(180)" style="fill:#fff;opacity:0.6000000000000001"></rect><rect x="81" y="270.14" width="76.04" height="14.01" transform="translate(238.04 554.29) rotate(180)" style="fill:#92E3A9"></rect><rect x="81" y="270.14" width="76.04" height="14.01" transform="translate(238.04 554.29) rotate(180)" style="fill:#fff;opacity:0.6000000000000001"></rect><rect x="81" y="293.26" width="35.19" height="14.01" transform="translate(197.19 600.53) rotate(180)" style="fill:#92E3A9"></rect><rect x="81" y="293.26" width="35.19" height="14.01" transform="translate(197.19 600.53) rotate(180)" style="fill:#fff;opacity:0.6000000000000001"></rect><circle cx="101.57" cy="350.95" r="23.9" transform="translate(-261.35 393.07) rotate(-80.48)" style="fill:#92E3A9"></circle><circle cx="101.57" cy="350.95" r="23.9" transform="translate(-261.35 393.07) rotate(-80.48)" style="fill:#fff;opacity:0.6000000000000001"></circle><path d="M104,346.79c-5.68-1.74-9.2-7.92-9.2-7.92s-1.79-.1-1.88,1.52a7.93,7.93,0,0,0,2.36,5.9l-2.73-.15a9.07,9.07,0,0,0-2.89.31l-.91.24a3,3,0,0,0-2.11,3.6L88,355.6a6.6,6.6,0,0,0,7.37,5c2.78-.41,7.11-1,7.86-1.18h0l2-.16.67-11.91Z" style="fill:#fff"></path><rect x="104.17" y="345.14" width="9.81" height="15.68" rx="1.08" style="fill:#92E3A9"></rect><circle cx="162.16" cy="350.95" r="23.9" transform="translate(-200.66 217.45) rotate(-45)" style="fill:#92E3A9"></circle><circle cx="162.16" cy="350.95" r="23.9" transform="translate(-200.66 217.45) rotate(-45)" style="fill:#fff;opacity:0.6000000000000001"></circle><path d="M174.07,342.4a8.42,8.42,0,0,0-11.91,0,8.42,8.42,0,0,0-11.91,11.91l11.91,11.91,11.91-11.91A8.44,8.44,0,0,0,174.07,342.4Z" style="fill:#92E3A9"></path><path d="M207.75,142.92v242H360.33v-242Zm142.9,232.3H218.82V152.61H350.65Z" style="fill:#92E3A9"></path><path d="M207.75,142.92v242H360.33v-242Zm142.9,232.3H218.82V152.61H350.65Z" style="fill:#fff;opacity:0.8"></path></g></svg>