<svg width="100%" height="300" viewBox="0 0 1000 300" xmlns="http://www.w3.org/2000/svg">
  <defs>
    <!-- Gradient -->
    <linearGradient id="greenZigzagGradient" x1="0%" y1="0%" x2="100%" y2="0%">
      <stop offset="20%" stop-color="green" stop-opacity="0.3" />
      <stop offset="60%" stop-color="white" stop-opacity="1" />
    </linearGradient>

    <!-- Zigzag Shape -->
    <clipPath id="zigzagClip">
      <path d="
        M0,0 
        L50,20 L100,0 L150,20 L200,0 
        L250,20 L300,0 L350,20 L400,0 
        L450,20 L500,0 L550,20 L600,0 
        L650,20 L700,0 L750,20 L800,0 
        L850,20 L900,0 L950,20 L1000,0
        L1000,300 
        L950,280 L900,300 L850,280 L800,300 
        L750,280 L700,300 L650,280 L600,300 
        L550,280 L500,300 L450,280 L400,300 
        L350,280 L300,300 L250,280 L200,300 
        L150,280 L100,300 L50,280 L0,300 
        Z" />
    </clipPath>

    <!-- Lighting Blur Filter -->
    <filter id="lightBlur" x="-50%" y="-50%" width="200%" height="200%">
      <feGaussianBlur in="SourceGraphic" stdDeviation="3" />
    </filter>

    <!-- Animation -->
    <style><![CDATA[
      .light {
        animation: flicker 2s infinite ease-in-out;
      }

      @keyframes flicker {
        0%, 100% { opacity: 0.2; }
        50% { opacity: 0.8; }
      }
    ]]></style>
  </defs>

  <!-- Gradient Background with Zigzag Clip -->
  <rect width="1000" height="300" fill="url(#greenZigzagGradient)" clip-path="url(#zigzagClip)" />

  <!-- Lighting Effects at Apexes -->
  <g filter="url(#lightBlur)">
    <circle class="light" cx="0" cy="0" r="6" fill="white" />
    <circle class="light" cx="100" cy="0" r="6" fill="white" />
    <circle class="light" cx="200" cy="0" r="6" fill="white" />
    <circle class="light" cx="300" cy="0" r="6" fill="white" />
    <circle class="light" cx="400" cy="0" r="6" fill="white" />
    <circle class="light" cx="500" cy="0" r="6" fill="white" />
    <circle class="light" cx="600" cy="0" r="6" fill="white" />
    <circle class="light" cx="700" cy="0" r="6" fill="white" />
    <circle class="light" cx="800" cy="0" r="6" fill="white" />
    <circle class="light" cx="900" cy="0" r="6" fill="white" />
    <circle class="light" cx="1000" cy="0" r="6" fill="white" />
  </g>
</svg>

